<?xml version="1.0" encoding="UTF-8" standalone="no"?>
<!-- Created with Inkscape (http://www.inkscape.org/) -->

<svg
   width="210mm"
   height="297mm"
   viewBox="0 0 210 297"
   version="1.1"
   id="svg39462"
   inkscape:version="1.1 (ce6663b3b7, 2021-05-25)"
   sodipodi:docname="logo_separate.svg"
   xmlns:inkscape="http://www.inkscape.org/namespaces/inkscape"
   xmlns:sodipodi="http://sodipodi.sourceforge.net/DTD/sodipodi-0.dtd"
   xmlns="http://www.w3.org/2000/svg"
   xmlns:svg="http://www.w3.org/2000/svg">
  <sodipodi:namedview
     id="namedview39464"
     pagecolor="#ffffff"
     bordercolor="#111111"
     borderopacity="1"
     inkscape:pageshadow="0"
     inkscape:pageopacity="0"
     inkscape:pagecheckerboard="1"
     inkscape:document-units="mm"
     showgrid="false"
     inkscape:zoom="2.1266375"
     inkscape:cx="137.54107"
     inkscape:cy="580.02362"
     inkscape:window-width="1848"
     inkscape:window-height="1016"
     inkscape:window-x="72"
     inkscape:window-y="27"
     inkscape:window-maximized="1"
     inkscape:current-layer="layer1" />
  <defs
     id="defs39459" />
  <g
     inkscape:label="Layer 1"
     inkscape:groupmode="layer"
     id="layer1">
    <path
       id="text43419"
       style="font-size:10.5833px;line-height:1.25;font-family:sans-serif;stroke-width:0.999999"
       d="m 207.11914,488.54297 c -1.6139,-0.0149 -3.2439,0.4519 -4.88672,1.40039 -2.54844,1.47137 -4.13699,3.43392 -4.76562,5.88672 -0.62864,2.45284 -0.19272,4.97676 1.30468,7.57031 0.34371,0.59532 0.70664,1.1385 1.0918,1.63477 -3.25085,-0.30296 -6.73115,0.61469 -10.43945,2.75586 -4.25119,2.45442 -7.05224,5.10097 -8.4043,7.9414 -1.34081,2.83389 -1.16862,5.71027 0.51758,8.63086 1.47135,2.54846 3.43193,4.13702 5.88477,4.76563 2.45285,0.62868 4.97675,0.19464 7.57031,-1.30274 0.59175,-0.34165 1.13144,-0.70667 1.625,-1.08984 -0.29746,3.24529 0.61914,6.71904 2.75586,10.41992 2.45442,4.25117 5.10294,7.05225 7.94336,8.4043 2.83392,1.34078 5.70833,1.16862 8.6289,-0.51758 2.54845,-1.47137 4.13699,-3.43392 4.76563,-5.88672 0.62863,-2.45284 0.19467,-4.97481 -1.30274,-7.56836 -0.33937,-0.58781 -0.69973,-1.12432 -1.08008,-1.61523 3.24811,0.28642 6.71209,-0.63189 10.39454,-2.75782 4.26245,-2.46092 7.0635,-5.10747 8.40429,-7.9414 1.35834,-2.82868 1.19515,-5.70298 -0.49023,-8.62305 0,0 0,-0.002 0,-0.002 -1.47126,-2.54761 -3.43439,-4.13515 -5.88672,-4.76367 -2.45283,-0.62862 -4.9748,-0.19468 -7.56836,1.30273 -0.59196,0.34177 -1.13293,0.70513 -1.62695,1.08789 0.29292,-3.25487 -0.62276,-6.72667 -2.75391,-10.41797 -2.46093,-4.26244 -5.10944,-7.06351 -7.94336,-8.4043 -1.23775,-0.59438 -2.48302,-0.89856 -3.73828,-0.91015 z m -0.4668,3.28515 c 0.56789,0.003 1.13372,0.10789 1.69727,0.3125 1.50758,0.52785 2.78581,1.70017 3.83398,3.51563 1.05469,1.82676 1.43337,3.52423 1.13672,5.09375 -0.28535,1.56302 -1.19493,2.78645 -2.72851,3.67188 -1.53358,0.88539 -3.05297,1.06495 -4.56055,0.5371 -1.49629,-0.53438 -2.77149,-1.71425 -3.82617,-3.54101 -1.04817,-1.8155 -1.4299,-3.50534 -1.14453,-5.06836 0.29011,-1.58083 1.20079,-2.81379 2.73437,-3.69922 0.95849,-0.55337 1.91095,-0.82789 2.85742,-0.82227 z m 9.34375,9.02344 c 1.61471,3.18735 2.26366,5.88723 1.94727,8.09961 -0.31162,2.19462 -1.59435,3.94401 -3.84961,5.2461 -0.84573,0.48827 -1.77018,0.87831 -2.77344,1.17187 -0.29191,0.0854 -0.58927,0.16246 -0.88867,0.23047 -0.17338,-0.76455 -0.37636,-1.4922 -0.61328,-2.17578 -0.33211,-0.96601 -0.74739,-1.87737 -1.24219,-2.73438 -0.4213,-0.72971 -0.88413,-1.38856 -1.39062,-1.97851 1.54225,-0.0645 3.11912,-0.55809 4.73047,-1.48828 1.21783,-0.70311 2.17869,-1.60499 2.88281,-2.70313 0.70411,-1.09814 1.10313,-2.3206 1.19726,-3.66797 z m -16.77929,7.70703 c 0.44766,-0.0101 0.8774,0.0131 1.29101,0.0703 2.21239,0.31634 3.9694,1.60214 5.27149,3.85742 0.49477,0.85697 0.88692,1.78139 1.17382,2.77344 0.0856,0.2925 0.1604,0.58863 0.22852,0.88867 -0.76386,0.17328 -1.4908,0.37656 -2.17383,0.61328 -0.96594,0.33222 -1.87737,0.74546 -2.73437,1.24023 -0.71931,0.4153 -1.36963,0.87303 -1.95313,1.3711 -0.0572,-1.53998 -0.54954,-3.11613 -1.48047,-4.72852 -0.6966,-1.20654 -1.60165,-2.15976 -2.71093,-2.85742 -1.09812,-0.70413 -2.32822,-1.10422 -3.69336,-1.20313 2.58059,-1.30659 4.84138,-1.98137 6.78125,-2.02539 z m 30.12109,0.82813 c 0.30195,0.007 0.59951,0.0363 0.89258,0.0898 1.58082,0.29027 2.81576,1.20275 3.70117,2.73633 0.88541,1.53354 1.05347,3.05191 0.50781,4.55469 -0.52788,1.50761 -1.69821,2.78581 -3.51367,3.83398 -1.82678,1.05468 -3.52617,1.43338 -5.0957,1.13672 -1.56301,-0.28535 -2.78647,-1.19497 -3.67188,-2.72851 -0.88541,-1.53359 -1.06496,-3.05493 -0.53711,-4.5625 0.53438,-1.49632 1.71619,-2.77146 3.54297,-3.82618 1.47507,-0.85161 2.8654,-1.26306 4.17383,-1.23437 z m -38.20117,3.7832 c 0.40715,-0.0126 0.80651,0.0185 1.19726,0.0898 1.56953,0.29669 2.79623,1.21056 3.68164,2.74414 0.88542,1.53358 1.06172,3.04864 0.52735,4.54492 -0.52785,1.50758 -1.70446,2.78903 -3.53125,3.84375 -1.81549,1.04817 -3.51488,1.42687 -5.0957,1.13672 -1.56301,-0.28536 -2.78647,-1.19494 -3.67188,-2.72852 -0.88541,-1.53358 -1.06496,-3.05297 -0.53711,-4.56055 0.54567,-1.50281 1.72748,-2.77799 3.54297,-3.82617 1.37009,-0.79103 2.66528,-1.20644 3.88672,-1.24414 z m 26.73242,2.4375 c 0.0651,1.54102 0.5607,3.11463 1.49024,4.72461 0.70312,1.21784 1.60292,2.18072 2.70117,2.88477 1.09812,0.70409 2.32058,1.10311 3.66797,1.19726 -3.18741,1.61462 -5.88719,2.26365 -8.09961,1.94727 -2.19461,-0.31143 -3.94206,-1.59628 -5.24414,-3.85156 -0.48828,-0.84575 -0.88041,-1.77009 -1.17383,-2.77344 -0.0855,-0.29254 -0.16041,-0.58864 -0.22852,-0.88867 0.7637,-0.17328 1.48898,-0.37661 2.17188,-0.61328 0.97721,-0.33865 1.89495,-0.75519 2.75195,-1.25 0.72322,-0.41756 1.37707,-0.87657 1.96289,-1.37696 z m -10.13672,3.79102 c 0.1732,0.76313 0.37676,1.48943 0.61328,2.17187 0.33861,0.97727 0.75521,1.89299 1.25,2.75 0.41204,0.71367 0.86472,1.35958 1.35742,1.93946 -1.53935,0.0576 -3.11484,0.55002 -4.72656,1.48046 -1.20656,0.69661 -2.15786,1.59955 -2.85547,2.70899 -0.70411,1.0981 -1.10422,2.33015 -1.20312,3.69531 -1.60818,-3.17609 -2.26214,-5.86634 -1.95703,-8.07226 0.31638,-2.21243 1.60216,-3.96944 3.85742,-5.27149 0.857,-0.49481 1.78146,-0.88677 2.77344,-1.17383 0.29251,-0.0856 0.59059,-0.1604 0.89062,-0.22851 z m 2.70899,10.33789 c 0.56635,7.3e-4 1.12834,0.10038 1.68945,0.30078 1.50758,0.52785 2.78908,1.70641 3.84375,3.5332 1.04818,1.81546 1.42686,3.51293 1.13672,5.09375 -0.28536,1.56299 -1.19494,2.78844 -2.72852,3.67383 -1.53358,0.88543 -3.05298,1.06304 -4.56054,0.53516 -1.50282,-0.54565 -2.77605,-1.72748 -3.82422,-3.54297 -1.05469,-1.82676 -1.44162,-3.52092 -1.15625,-5.08399 0.29665,-1.56952 1.21055,-2.79624 2.74414,-3.68164 0.95848,-0.55339 1.91154,-0.82934 2.85547,-0.82812 z"
       transform="scale(0.26458333)" />
    <text
       xml:space="preserve"
       style="font-size:3.70417px;line-height:1.25;font-family:sans-serif;stroke-width:0.264583"
       x="60.869732"
       y="132.00943"
       id="text44699"><tspan
         sodipodi:role="line"
         id="tspan44697"
         style="font-size:3.70417px;stroke-width:0.264583"
         x="60.869732"
         y="132.00943">0</tspan></text>
  </g>
</svg>
