<svg id="svg-topnav" width="702.32489" height="72.936287" version="1.1" viewBox="0 0 702.32488 72.936287" xmlns="http://www.w3.org/2000/svg">
  <g id="svg-topnav-layer-bot" transform="matrix(7.1149112,0,0,7.1149112,-875.36938,-5.6731524)">
    <g id="svg-topnav-grp-aboutus" transform="matrix(.71 0 0 .71 59 2.6)">
      <text id="svg-topnav-obj-aboutus-text" x="113.90952" y="7.0011258" style="fill:#000000;font-family:sans-serif;font-size:4.2px;line-height:1.25;stroke-width:.26" xml:space="preserve"><tspan id="tspan9800" x="113.90952" y="7.0011258" style="font-size:4.2px;stroke-width:.26">About Us</tspan></text>
      <rect id="svg-topnav-obj-aboutus-rect" x="119" y="8.3000002" width="9.6000004" height=".63" ry=".31999999" style="stroke-width:.24"/>
    </g>
    <g id="svg-topnav-grp-news" transform="matrix(.71 0 0 .71 59 2.6)">
      <text id="svg-topnav-obj-news-text" x="142.32515" y="6.9360137" style="fill:#000000;font-family:sans-serif;font-size:4.2px;line-height:1.25;stroke-width:.26" xml:space="preserve"><tspan id="tspan18376" x="142.32515" y="6.9360137" style="font-size:4.2px;stroke-width:.26">News</tspan></text>
      <rect id="svg-topnav-obj-news-rect" x="143" y="8.3000002" width="9.6000004" height=".63" ry=".31999999" style="stroke-width:.24"/>
    </g>
    <g id="svg-topnav-grp-roboq" transform="matrix(.71 0 0 .71 59 2.6)">
      <g id="svg-topnav-obj-roboq-text" style="stroke-width:.26" aria-label="Roboq">
        <path id="path989" d="m165.92621 4.8866159q0.24815 0 0.37325-0.092285 0.12715-0.092285 0.17021-0.3035156 0.041-0.2091797-0.0492-0.2994141-0.0882-0.090234-0.33633-0.090234h-0.33222l-0.15791 0.7854492zm-0.44091 0.5455078-0.23174 1.1586914h-0.78955l0.61318-3.0618163h1.20586q0.60498 0 0.84492 0.2030273 0.24199 0.2030274 0.15381 0.6418945-0.0595 0.3035156-0.24609 0.4983399-0.18457 0.1948242-0.49834 0.2871093 0.15381 0.036914 0.25634 0.1681641 0.10254 0.1291992 0.18047 0.39375l0.2543 0.8695312h-0.84082l-0.22148-0.7608398q-0.0656-0.2296875-0.16612-0.3137696-0.0984-0.084082-0.29121-0.084082z"/>
        <path id="path991" d="m169.12338 4.7635691q-0.24404 0-0.4081 0.1763671-0.16201 0.1743164-0.22764 0.5044922-0.0656 0.3301758 0.0267 0.5065429 0.0923 0.1743164 0.33633 0.1743164 0.23994 0 0.40195-0.1743164 0.16406-0.1763671 0.22969-0.5065429 0.0656-0.3301758-0.0267-0.5044922-0.0923-0.1763671-0.33223-0.1763671zm0.10459-0.525q0.59268 0 0.86133 0.3199218 0.2707 0.3199219 0.15791 0.8859375t-0.51064 0.8859375q-0.39786 0.3199218-0.99053 0.3199218-0.59473 0-0.86543-0.3199218-0.2707-0.3199219-0.15791-0.8859375t0.51064-0.8859375q0.39991-0.3199218 0.99463-0.3199218z"/>
        <path id="path993" d="m171.86733 6.1170846q0.23584 0 0.39375-0.1722656 0.15996-0.1722656 0.22558-0.5003906 0.0656-0.328125-0.0246-0.5003906t-0.32607-0.1722656q-0.23584 0-0.3958 0.1743164-0.15996 0.1722656-0.22559 0.4983398-0.0656 0.3260742 0.0246 0.5003906 0.0923 0.1722656 0.32813 0.1722656zm-0.19072-1.4868163q0.19277-0.2009766 0.3958-0.2953125 0.20302-0.096387 0.44296-0.096387 0.42452 0 0.62959 0.3383789 0.20713 0.3363281 0.10049 0.8674804t-0.44707 0.8695312q-0.34043 0.3363281-0.76494 0.3363281-0.23994 0-0.40605-0.094336-0.16407-0.096387-0.27686-0.2973633l-0.0656 0.3322266h-0.73418l0.63779-3.1910155h0.73418z"/>
        <path id="path995" d="m175.01528 4.7635691q-0.24405 0-0.40811 0.1763671-0.16201 0.1743164-0.22764 0.5044922-0.0656 0.3301758 0.0267 0.5065429 0.0923 0.1743164 0.33632 0.1743164 0.23994 0 0.40196-0.1743164 0.16406-0.1763671 0.22968-0.5065429 0.0656-0.3301758-0.0267-0.5044922-0.0923-0.1763671-0.33222-0.1763671zm0.10459-0.525q0.59267 0 0.86132 0.3199218 0.27071 0.3199219 0.15792 0.8859375-0.1128 0.5660156-0.51065 0.8859375-0.39785 0.3199218-0.99053 0.3199218-0.59472 0-0.86543-0.3199218-0.2707-0.3199219-0.15791-0.8859375 0.1128-0.5660156 0.51065-0.8859375 0.3999-0.3199218 0.99463-0.3199218z"/>
        <path id="path997" d="m177.88432 4.7717722q-0.23379 0-0.3917 0.1722656t-0.22354 0.5003906q-0.0656 0.328125 0.0226 0.5003906 0.0902 0.1722656 0.32403 0.1722656 0.23584 0 0.39375-0.1722656 0.15996-0.1722656 0.22558-0.5003906 0.0656-0.328125-0.0246-0.5003906t-0.32607-0.1722656zm0.18662 1.4868163q-0.19072 0.2030274-0.39375 0.2973633-0.20098 0.094336-0.44092 0.094336-0.42451 0-0.62959-0.3363281-0.20508-0.3383789-0.0984-0.8695312 0.10664-0.5311523 0.44501-0.8654296 0.34043-0.3363282 0.76495-0.3363282 0.23994 0 0.404 0.094336t0.2748 0.2973632l0.0677-0.3404296h0.73828l-0.63369 3.1705076h-0.73833z"/>
      </g>
      <rect id="svg-topnav-obj-roboq-rect" x="167" y="8.3000002" width="9.6000004" height=".63" ry=".31999999" style="stroke-width:.24"/>
    </g>
    <g id="svg-topnav-grp-account" transform="matrix(.71 0 0 .71 59 2.6)">
      <text id="svg-topnav-obj-account-text" x="188.60564" y="6.9360147" style="fill:#000000;font-family:sans-serif;font-size:4.2px;line-height:1.25;stroke-width:.26" xml:space="preserve"><tspan id="tspan28326" x="188.60564" y="6.9360147" style="font-size:4.2px;stroke-width:.26">Account</tspan></text>
      <rect id="svg-topnav-obj-account-rect" x="192" y="8.3000002" width="9.6000004" height=".63" ry=".31999999" style="stroke-width:.24"/>
    </g>
  </g>
</svg>
