<svg id="svg-roboq" width="1420" height="850" version="1.1" viewBox="0 0 1420 850.00002" xmlns="http://www.w3.org/2000/svg">
  <g id="svg-roboq-grp-tutorial" transform="matrix(1.0909074,0,0,1.0909074,-101.97681,-43.260383)">
    <g id="g2554">
      <g id="g198874" transform="matrix(.83432929 0 0 .83432929 -209.31868 90.076741)">
        <g id="svg-roboq-obj-excelicon" transform="translate(759.19397,-22.87566)">
          <path id="rect874-2" d="m230.6 226.18766c-14.22 0-25.2 11.34-25.2 25.2v48.6c0 14.22 11.34 25.2 25.2 25.2h48.6c14.22 0 25.2-11.34 25.2-25.2v-48.6c0-14.22-11.34-25.2-25.2-25.2zm12.24 16.2h27c6.84 0 12.24 5.4 12.24 12.24v27c0 6.84-5.4 12.24-12.24 12.24h-27c-6.84 0-12.24-5.4-12.24-12.24v-27c0-6.84 5.4-12.24 12.24-12.24z" style="fill:#666;opacity:.6;stroke-width:.468"/>
          <rect id="rect14893" x="218" y="231.58766" width="64.800003" height="63" ry="1.512" style="fill:#f9f9f9;stroke-width:.468"/>
          <rect id="rect14282-56" transform="rotate(90)" x="229.78766" y="-255.8" width="64.800003" height="3.0600002" ry="1.512" style="fill:#8dd35f;stroke-width:.522"/>
          <rect id="rect14282-56-9" transform="rotate(90)" x="235.18767" y="-268.39999" width="64.800003" height="3.0600002" ry="1.512" style="fill:#8dd35f;stroke-width:.522"/>
          <rect id="rect14282" x="219.8" y="249.58766" width="64.800003" height="3.0600002" ry="1.512" style="fill:#5aa02c;stroke-width:.522"/>
          <rect id="rect14282-7" x="218" y="260.38766" width="64.800003" height="3.0600002" ry="1.512" style="fill:#8dd35f;stroke-width:.522"/>
          <rect id="rect14282-5" x="219.8" y="271.18765" width="64.800003" height="3.0600002" ry="1.512" style="fill:#8dd35f;stroke-width:.522"/>
          <rect id="rect14282-5-2" x="218" y="280.18765" width="64.800003" height="3.0600002" ry="1.512" style="fill:#8dd35f;stroke-width:.522"/>
          <rect id="rect14282-3" transform="rotate(90)" x="231.58766" y="-243.2" width="64.800003" height="3.0600002" ry="1.512" style="fill:#5aa02c;stroke-width:.522"/>
          <path id="rect874" d="m225.2 222.58766c-14.22 0-25.2 11.34-25.2 25.2v48.6c0 14.22 11.34 25.2 25.2 25.2h48.6c14.22 0 25.2-11.34 25.2-25.2v-48.6c0-14.22-11.34-25.2-25.2-25.2zm12.24 16.2h27c6.84 0 12.24 5.4 12.24 12.24v27c0 6.84-5.4 12.24-12.24 12.24h-27c-6.84 0-12.24-5.4-12.24-12.24v-27c0-6.84 5.4-12.24 12.24-12.24z" style="fill:#8dd35f;stroke-width:.468"/>
          <text id="text3038" x="217.16682" y="311.82162" style="font-family:sans-serif;font-size:19.8px;line-height:1.25;stroke-width:.468" xml:space="preserve"><tspan id="tspan3036" x="217.16682" y="311.82162" style="fill:#ffffff;font-size:19.8px;stroke-width:.468">*.XLSX</tspan></text>
          <path id="rect13702-3" d="m234.2 234.91963c-7.38 0-13.32 4.40803-13.32 11.78803v30.6c0 7.38 5.94 13.32 13.32 13.32h3.24c-6.84 0-12.24-5.4-12.24-12.24v-27c0-6.84 5.4-12.24 12.24-12.24h27c6.84 0 12.24 5.4 12.24 12.24v-3.24c0-7.38-5.94-13.32-13.32-13.32zm43.2 41.66803c0 7.38-5.94 13.32-13.32 13.32h0.99c6.84 0 12.24-5.4 12.24-12.24z" style="fill:#5aa02c;stroke-width:.432"/>
        </g>
        <g id="svg-roboq-obj-xmlicon">
          <path id="rect874-2-1" d="m1833.574 204.212c-14.04 0-25.272 11.232-25.272 25.272v47.268c0 14.04 11.232 25.272 25.272 25.272h47.268c14.04 0 25.272-11.232 25.272-25.272v-47.268c0-14.04-11.232-25.272-25.272-25.272z" style="fill:#666;opacity:.6;stroke-width:.468"/>
          <path id="rect874-8" d="m1829.362 200c-14.04 0-25.272 11.232-25.272 25.272v47.268c0 14.04 11.232 25.272 25.272 25.272h47.268c14.04 0 25.272-11.232 25.272-25.272v-47.268c0-14.04-11.232-25.272-25.272-25.272z" style="fill:#87cdde;stroke-width:.468"/>
          <text id="text3038-7" x="1823.7648" y="289.08615" style="font-family:sans-serif;font-size:19.8px;line-height:1.25;stroke-width:.468" xml:space="preserve"><tspan id="tspan3036-9" x="1823.7648" y="289.08615" style="fill:#ffffff;font-size:19.8px;stroke-width:.468">*.XML </tspan></text>
          <path id="rect874-8-2" d="m1841.7171 211.82956c-6.4451 0-11.6012 5.96172-11.6012 13.37359v25.78041c0 7.41187 5.1561 13.37359 11.6012 13.37359h22.5578c6.4451 0 11.6012-5.96172 11.6012-13.37359v-25.78041c0-7.41187-5.1561-13.37359-11.6012-13.37359z" style="fill:#37abc8;stroke-width:.225579"/>
          <path id="rect874-8-2-0" d="m1846.0675 217.61085c-5.8006 0-10.4733 5.47834-10.4733 12.08457v22.55786c0 6.76736 4.6727 12.08457 10.4733 12.08457h19.3353c5.8006 0 10.4733-5.47834 10.4733-12.08457v-22.55786c0-6.76736-4.6727-12.08457-10.4733-12.08457z" style="fill:#f9f9f9;stroke-width:.209466"/>
          <g id="text57618" transform="translate(759.19397,-22.87566)" style="fill:#37abc8;stroke-width:.418932" aria-label="&lt;/&gt;">
            <path id="path3630" d="m1091.6774 261.37242-8.9313 3.17612 8.9313 3.15882v1.57508l-11.0948-4.02424v-1.43662l11.0948-4.02425z"/>
            <path id="path3632" d="m1098.0556 257.17508h1.4712l-4.5002 14.56518h-1.4712z"/>
            <path id="path3634" d="m1101.4048 261.37242v-1.57509l11.0948 4.02425v1.43662l-11.0948 4.02424v-1.57508l8.9139-3.15882z"/>
          </g>
        </g>
        <text id="svg-roboq-intro-obj-roboq-text" x="1488.8408" y="263.6683" style="fill:#1a1a1a;font-family:sans-serif;font-size:43px;line-height:1.25;stroke-width:.26" xml:space="preserve"><tspan id="tspan75495" x="1488.8408" y="263.6683" style="fill:#1a1a1a;font-family:sans-serif;font-size:43px;font-style:italic;font-weight:bold;stroke-width:.26">Roboq</tspan></text>
        <g id="svg-roboq-intro-obj-exceltable" transform="translate(800.42755,-6.4333)">
          <path id="rect15699-7-2-2" d="m447.95769 185.82842c-10.92 0-19.6 8.68-19.6 19.6v92.4c-0.742 5.04-0.826 8.82 0 10.5v2.66c0 10.92 8.68 19.6 19.6 19.6h64.4c10.92 0 19.6-8.68 19.6-19.6v-105c0-10.92-8.68-19.6-19.6-19.6z" style="fill:#666;opacity:.6;stroke-width:.462"/>
          <path id="rect15699-7-2" d="m443.75769 183.55764c-10.92 0-19.6 8.68-19.6 19.6v92.4c-0.742 5.04-0.826 8.82 0 10.5v2.66c0 10.92 8.68 19.6 19.6 19.6h64.4c10.92 0 19.6-8.68 19.6-19.6v-105c0-10.92-8.68-19.6-19.6-19.6z" style="fill:#f9f9f9;stroke-width:.462"/>
          <rect id="rect16195-0-92" x="424.15768" y="269.14529" width="103.6" height="1.9599999" rx="0" ry=".99399996" style="fill:#808080;stroke-width:.336"/>
          <rect id="rect16195-0-8" x="424.15768" y="284.54529" width="103.6" height="1.9599999" rx="0" ry=".99399996" style="fill:#808080;stroke-width:.336"/>
          <rect id="rect16195-0-61" x="424.15768" y="299.94531" width="103.6" height="1.9599999" rx="0" ry=".99399996" style="fill:#808080;stroke-width:.336"/>
          <rect id="rect16195-0-0" x="426.9577" y="315.34531" width="99.400002" height="1.9599999" rx="0" ry=".99399996" style="fill:#808080;stroke-width:.336"/>
          <rect id="rect16195-02-7" transform="rotate(90)" x="185.14529" y="-481.55768" width="142.8" height="1.9599999" rx="0" ry=".99399996" style="fill:#808080;stroke-width:.392"/>
          <rect id="rect16195-02-9" transform="rotate(90)" x="185.14529" y="-512.35767" width="142.8" height="1.9599999" rx="0" ry=".99399996" style="fill:#808080;stroke-width:.392"/>
          <rect id="rect16195-0" x="424.15768" y="222.9453" width="103.6" height="1.9599999" rx="0" ry=".99399996" style="fill:#808080;stroke-width:.336"/>
          <rect id="rect16195-0-9" x="424.15768" y="238.34529" width="103.6" height="1.9599999" rx="0" ry=".99399996" style="fill:#808080;stroke-width:.336"/>
          <rect id="rect16195-0-6" x="424.15768" y="253.7453" width="103.6" height="1.9599999" rx="0" ry=".99399996" style="fill:#808080;stroke-width:.336"/>
          <rect id="rect16195" x="424.15768" y="207.5453" width="102.2" height="1.9599999" rx="0" ry=".99399996" style="fill:#1a1a1a;stroke-width:.336"/>
          <rect id="rect16195-02" transform="rotate(90)" x="185.14529" y="-450.75769" width="142.8" height="1.9599999" rx="0" ry=".99399996" style="fill:#1a1a1a;stroke-width:.392"/>
          <g id="g894" transform="matrix(1.4,0,0,1.4,372.35769,146.28686)" style="fill:#71c837">
            <path id="rect15699-7" d="m51 27c-7.8 0-14 6.2-14 14v75c0 7.8 6.2 14 14 14h46c7.8 0 14-6.2 14-14v-75c0-7.8-6.2-14-14-14zm0.69 1.5h45c7.5 0 14 6.1 14 14v73c0 7.5-6.1 14-14 14h-45c-7.5 0-14-6.1-14-14v-73c0-7.5 6.1-14 14-14z" style="fill:#71c837;stroke-width:.33"/>
          </g>
          <text id="text10058" x="432.88266" y="202.39064" style="font-family:sans-serif;font-size:13.3px;line-height:1.25;stroke-width:.364" xml:space="preserve"><tspan id="tspan10056" x="432.88266" y="202.39064" style="font-size:13.3px;stroke-width:.364">A</tspan></text>
          <text id="text10058-3" x="461.33716" y="202.39064" style="font-family:sans-serif;font-size:13.3px;line-height:1.25;stroke-width:.364" xml:space="preserve"><tspan id="tspan10056-6" x="461.33716" y="202.39064" style="font-size:13.3px;stroke-width:.364">B</tspan></text>
          <text id="text20475" x="490.67346" y="202.38414" style="font-family:sans-serif;font-size:13.3px;line-height:1.25;stroke-width:.364" xml:space="preserve"><tspan id="tspan20473" x="490.67346" y="202.38414" style="font-size:13.3px;stroke-width:.364">C</tspan></text>
          <text id="text32145" x="434.16437" y="218.30154" style="font-family:sans-serif;font-size:8.96px;line-height:1.25;stroke-width:.364" xml:space="preserve"><tspan id="tspan32143" x="434.16437" y="218.30154" style="stroke-width:.364">1</tspan></text>
          <text id="text32145-62" x="434.36185" y="233.97362" style="font-family:sans-serif;font-size:8.96px;line-height:1.25;stroke-width:.364" xml:space="preserve"><tspan id="tspan32143-6" x="434.36185" y="233.97362" style="stroke-width:.364">2</tspan></text>
          <text id="text32145-3" x="434.25986" y="249.64568" style="font-family:sans-serif;font-size:8.96px;line-height:1.25;stroke-width:.364" xml:space="preserve"><tspan id="tspan32143-56" x="434.25986" y="249.64568" style="stroke-width:.364">3</tspan></text>
          <text id="text32145-2" x="434.27505" y="265.32645" style="font-family:sans-serif;font-size:8.96px;line-height:1.25;stroke-width:.364" xml:space="preserve"><tspan id="tspan32143-9" x="434.27505" y="265.32645" style="stroke-width:.364">4</tspan></text>
          <text id="text32145-1" x="434.28809" y="280.88129" style="font-family:sans-serif;font-size:8.96px;line-height:1.25;stroke-width:.364" xml:space="preserve"><tspan id="tspan32143-2" x="434.28809" y="280.88129" style="stroke-width:.364">5</tspan></text>
          <text id="text32145-70" x="434.2121" y="296.67926" style="font-family:sans-serif;font-size:8.96px;line-height:1.25;stroke-width:.364" xml:space="preserve"><tspan id="tspan32143-93" x="434.2121" y="296.67926" style="stroke-width:.364">6</tspan></text>
          <text id="text32145-6" x="434.25769" y="312.36002" style="font-family:sans-serif;font-size:8.96px;line-height:1.25;stroke-width:.364" xml:space="preserve"><tspan id="tspan32143-0" x="434.25769" y="312.36002" style="stroke-width:.364">7</tspan></text>
        </g>
        <path id="path2150" d="m1142.2404 229.912v13h-23c-0.49 0-0.89 0.4-0.89 0.89v17c0 0.49 0.4 0.89 0.89 0.89h23v13l27-22z" style="fill:#b3b3b3;stroke-width:.22"/>
        <path id="path2150-7" d="m1411.0317 229.912v13h-23c-0.49 0-0.89 0.4-0.89 0.89v17c0 0.49 0.4 0.89 0.89 0.89h23v13l27-22z" style="fill:#666;stroke-width:.22"/>
        <path id="path2150-7-5" d="m1722.3335 229.912v13h-23c-0.49 0-0.89 0.4-0.89 0.89v17c0 0.49 0.4 0.89 0.89 0.89h23v13l27-22z" style="fill:#333;stroke-width:.22"/>
        <text id="text18122" x="1132.7883" y="352.38293" style="font-family:sans-serif;font-size:21px;line-height:1.25;stroke-width:.26" xml:space="preserve"><tspan id="tspan28818" x="1132.7883" y="352.38293" style="font-size:21px;stroke-width:.26;text-align:center;text-anchor:middle">Record your data</tspan><tspan id="tspan122281" x="1132.7883" y="378.84131" style="font-size:21px;stroke-width:.26;text-align:center;text-anchor:middle">using our template</tspan></text>
        <text id="text18122-5" x="1418.0461" y="352.38293" style="font-family:sans-serif;font-size:21px;line-height:1.25;stroke-width:.26" xml:space="preserve"><tspan id="tspan28818-2" x="1418.0461" y="352.38293" style="font-size:21px;stroke-width:.26;text-align:center;text-anchor:middle">Upload template</tspan><tspan id="tspan86653" x="1418.0461" y="378.84131" style="font-size:21px;stroke-width:.26;text-align:center;text-anchor:middle">to Roboq</tspan></text>
        <text id="text18122-5-9" x="1727.2131" y="354.43448" style="font-family:sans-serif;font-size:21px;line-height:1.25;stroke-width:.26" xml:space="preserve"><tspan id="tspan86653-2" x="1727.2131" y="354.43448" style="font-size:21px;stroke-width:.26;text-align:center;text-anchor:middle">Download</tspan><tspan id="tspan151812" x="1727.2131" y="380.89285" style="font-size:21px;stroke-width:.26;text-align:center;text-anchor:middle">the XML</tspan></text>
      </g>
      <g id="g33214" transform="translate(28.858937)">
        <g id="g2413">
          <g id="g1565" transform="matrix(.83432929 0 0 .83432929 480.54261 84.70925)">
            <path id="rect13574" d="m586.6598 463.88918c-0.5-3e-3 -1 0.05-1.5 0.16l-66 15c-5.5 1.2-8.8 4.7-10 10l-28 106c-1.4 5.5 4.6 9.3 10 10l90 15c5.6 0.9 10-4.5 10-10l0.53-20c0.53-11 0.88-26 1.1-41l2-74c0.14-5.1-3.8-10-8.6-10z" style="fill:#666;opacity:.6;stroke-width:.25"/>
            <path id="rect13574-7" d="m583.13058 460.35996c-0.5-3e-3 -1 0.05-1.5 0.16l-66 15c-5.5 1.2-8.8 4.7-10 10l-28 106c-1.4 5.5 4.6 9.3 10 10l90 15c5.6 0.9 10-4.5 10-10l0.53-20c0.53-11 0.88-26 1.1-41l2-74c0.14-5.1-3.8-10-8.6-10z" style="fill:#f9f9f9;stroke-width:.25"/>
            <path id="path11431" d="m515.6598 475.88918c-5.5 1.2-8.8 4.7-10 10l-28 106c-1.4 5.5 4.6 9.3 10 10l90 15c5.6 0.9 10-4.5 10-10l3.6-135c0.15-5.6-4.7-11-10-10zm1.3 2.3 63-15c5.3-1.2 10 4.4 9.8 9.8l-3.6 131c-0.15 5.4-4.5 11-9.8 9.8l-87-15c-5.4-0.9-10-4.5-8.7-9.8l26-102c1.4-5.3 4.5-8.6 9.8-9.8z" style="fill:#1a1a1a;stroke-width:.25"/>
          </g>
          <g id="svg-roboq-obj-dummycombined">
            <g id="svg-roboq-obj-dummysection">
              <g id="g1527" transform="matrix(.83432929 0 0 .83432929 480.54261 84.70925)">
                <path id="rect14299-5-2-1" d="m437.8598 556.88918c-0.1-4e-3 -0.21-8e-4 -0.31 9e-3l-63 5.8c-1.7 0.15-2.8 1.1-3.7 2.5l-14 21c-0.89 1.4 1.3 2.9 3 3l68 4.8c1.7 0.12 2.5-1.4 3-3l9.7-32c0.46-1.5-1.1-3-2.7-3z" style="fill:#666;opacity:.6;stroke-width:.26"/>
                <path id="path7873" d="m435.40136 553.83074c-0.1-4e-3 -0.21-8e-4 -0.31 9e-3l-63 5.8c-1.7 0.15-2.8 1.1-3.7 2.5l-14 21c-0.89 1.4 1.3 2.9 3 3l68 4.8c1.7 0.12 2.5-1.4 3-3l9.7-32c0.46-1.5-1.1-3-2.7-3z" style="fill:#f9f9f9;stroke-width:.26"/>
                <path id="path7875" d="m372.6598 559.88918c-1.7 0.15-2.8 1.1-3.7 2.5l-14 21c-0.89 1.4 1.3 2.9 3 3l68 4.8c1.7 0.12 2.5-1.4 3-3l9.7-32c0.49-1.6-1.4-3.2-3-3zm1.4 0.64 60-5.8c1.6-0.15 3.4 1.4 2.9 2.9l-9.7 31c-0.49 1.5-1.3 3-2.9 2.9l-65-4.8c-1.6-0.12-4-1.2-3.2-2.5l13-21c0.87-1.3 2.4-2.1 4-2.2z" style="fill:#1a1a1a;stroke-width:.26"/>
              </g>
              <g id="g1532" transform="matrix(.83432929 0 0 .83432929 480.54261 84.70925)">
                <path id="rect14299-5-2" d="m439.2598 529.88918c-0.1-4e-3 -0.21-1e-3 -0.31 8e-3l-63 5.8c-1.7 0.15-2.8 1.1-3.7 2.5l-14 21c-0.89 1.4 1.3 2.9 3 3l68 4.8c1.7 0.12 2.5-1.4 3-3l9.7-32c0.46-1.5-1.1-3-2.7-3z" style="fill:#666;opacity:.6;stroke-width:.26"/>
                <path id="path7393" d="m437.7598 527.88918c-0.1-4e-3 -0.21-8e-4 -0.31 9e-3l-63 5.8c-1.7 0.15-2.8 1.1-3.7 2.5l-14 21c-0.89 1.4 1.3 2.9 3 3l68 4.8c1.7 0.12 2.5-1.4 3-3l9.7-32c0.46-1.5-1.1-3-2.7-3z" style="fill:#f9f9f9;stroke-width:.26"/>
                <path id="path7395" d="m374.6598 533.88918c-1.7 0.15-2.8 1.1-3.7 2.5l-14 21c-0.89 1.4 1.3 2.9 3 3l68 4.8c1.7 0.12 2.5-1.4 3-3l9.7-32c0.49-1.6-1.4-3.2-3-3zm1.4 0.64 60-5.8c1.6-0.15 3.4 1.4 2.9 2.9l-9.7 31c-0.49 1.5-1.3 3-2.9 2.9l-65-4.8c-1.6-0.12-4-1.2-3.2-2.5l13-21c0.87-1.3 2.4-2.1 4-2.2z" style="fill:#1a1a1a;stroke-width:.26"/>
              </g>
              <g id="g1537" transform="matrix(.83432929 0 0 .83432929 480.54261 84.70925)">
                <path id="rect14299-5" d="m442.1498 503.88918c-0.1-4e-3 -0.21-1e-3 -0.31 8e-3l-63 5.8c-1.7 0.15-2.8 1.1-3.7 2.5l-14 21c-0.89 1.4 1.3 2.9 3 3l68 4.8c1.7 0.12 2.5-1.4 3-3l9.7-32c0.46-1.5-1.1-3-2.7-3z" style="fill:#666;opacity:.6;stroke-width:.26"/>
                <path id="path7065" d="m440.7598 500.88918c-0.1-4e-3 -0.21-7.9e-4 -0.31 9e-3l-63 5.8c-1.7 0.15-2.8 1.1-3.7 2.5l-14 21c-0.89 1.4 1.3 2.9 3 3l68 4.8c1.7 0.12 2.5-1.4 3-3l9.7-32c0.46-1.5-1.1-3-2.7-3z" style="fill:#f9f9f9;stroke-width:.26"/>
                <path id="path7067" d="m377.6598 506.88918c-1.7 0.15-2.8 1.1-3.7 2.5l-14 21c-0.89 1.4 1.3 2.9 3 3l68 4.8c1.7 0.12 2.5-1.4 3-3l9.7-32c0.49-1.6-1.4-3.2-3-3zm1.4 0.64 60-5.8c1.6-0.15 3.4 1.4 2.9 2.9l-9.7 31c-0.49 1.5-1.3 3-2.9 2.9l-65-4.8c-1.6-0.12-4-1.2-3.2-2.5l13-21c0.87-1.3 2.4-2.1 4-2.2z" style="fill:#1a1a1a;stroke-width:.26"/>
              </g>
              <g id="g1542" transform="matrix(.83432929 0 0 .83432929 480.54261 84.70925)">
                <path id="rect13896-2" d="m421.6598 481.88918c-0.1 5.3e-4 -0.21 8e-3 -0.31 0.023l-40 5.8c-1.7 0.24-3.3 0.58-4.3 1.9l-13 17c-1 1.3 1.4 2.8 3 3l20 2.2c6 0.73 12 1.4 17 1.9l7.3 0.79c1.7 0.18 2.4-1.4 3-3l9.7-27c0.54-1.5-1.1-3-2.7-3z" style="fill:#666;opacity:.6;stroke-width:.26"/>
                <path id="path6265" d="m420.6598 478.83074c-0.1 5.3e-4 -0.21 8e-3 -0.31 0.023l-40 5.8c-1.7 0.24-3.3 0.58-4.3 1.9l-13 17c-1 1.3 1.4 2.8 3 3l44 4.8c1.7 0.18 2.4-1.4 3-3l9.7-27c0.54-1.5-1.1-3-2.7-3zm1.3 3.5c0.076-6e-3 0.12 0.026 0.12 0.1l-0.24-0.07c0.046-0.016 0.087-0.028 0.12-0.03z" style="fill:#f9f9f9;stroke-width:.26"/>
                <path id="path6267" d="m380.6598 484.88918c-1.7 0.24-3.3 0.58-4.3 1.9l-13 17c-1 1.3 1.4 2.8 3 3l44 4.8c1.7 0.18 2.4-1.4 3-3l9.7-27c0.57-1.6-1.4-3.3-3-3zm1.2 0.67 37-5.8c1.6-0.24 2.9 1.3 2.9 2.9l-9.7 26c-0.56 1.5-1.3 3-2.9 2.9l-42-4.8c-1.6-0.18-3.4-1.1-2.4-2.3l13-16c0.96-1.3 2.6-1.9 4.2-2.1z" style="fill:#1a1a1a;stroke-width:.26"/>
              </g>
            </g>
            <g id="svg-roboq-obj-dummytext">
              <g id="text28756-3-3" aria-label="xxxxxxx">
                <path id="path32786" d="m796.90735 560.43958-1.97754 2.66113 2.08008 2.80762h-1.05957l-1.5918-2.14844-1.5918 2.14844h-1.05957l2.12403-2.86133-1.94336-2.60742h1.05957l1.45019 1.94824 1.4502-1.94824z"/>
                <path id="path32788" d="m802.82532 560.43958-1.97754 2.66113 2.08008 2.80762h-1.05957l-1.5918-2.14844-1.5918 2.14844h-1.05957l2.12403-2.86133-1.94336-2.60742h1.05957l1.45019 1.94824 1.4502-1.94824z"/>
                <path id="path32790" d="m808.74329 560.43958-1.97754 2.66113 2.08008 2.80762h-1.05958l-1.59179-2.14844-1.5918 2.14844h-1.05957l2.12402-2.86133-1.94336-2.60742h1.05958l1.45019 1.94824 1.4502-1.94824z"/>
                <path id="path32792" d="m814.66125 560.43958-1.97753 2.66113 2.08007 2.80762h-1.05957l-1.59179-2.14844-1.5918 2.14844h-1.05957l2.12402-2.86133-1.94336-2.60742h1.05957l1.4502 1.94824 1.45019-1.94824z"/>
                <path id="path32794" d="m820.57922 560.43958-1.97754 2.66113 2.08008 2.80762h-1.05957l-1.59179-2.14844-1.5918 2.14844h-1.05957l2.12402-2.86133-1.94336-2.60742h1.05957l1.4502 1.94824 1.45019-1.94824z"/>
                <path id="path32796" d="m826.49719 560.43958-1.97754 2.66113 2.08008 2.80762h-1.05957l-1.5918-2.14844-1.59179 2.14844h-1.05957l2.12402-2.86133-1.94336-2.60742h1.05957l1.4502 1.94824 1.45019-1.94824z"/>
                <path id="path32798" d="m832.41516 560.43958-1.97754 2.66113 2.08008 2.80762h-1.05957l-1.5918-2.14844-1.59179 2.14844h-1.05957l2.12402-2.86133-1.94336-2.60742h1.05957l1.4502 1.94824 1.45019-1.94824z"/>
              </g>
              <g id="text28756-3-7" aria-label="xxxxxxx">
                <path id="path32753" d="m798.47522 538.35382-1.97754 2.66113 2.08008 2.80762h-1.05957l-1.5918-2.14844-1.5918 2.14844h-1.05957l2.12403-2.86133-1.94336-2.60742h1.05957l1.45019 1.94824 1.4502-1.94824z"/>
                <path id="path32755" d="m804.39319 538.35382-1.97754 2.66113 2.08008 2.80762h-1.05957l-1.5918-2.14844-1.5918 2.14844h-1.05957l2.12403-2.86133-1.94336-2.60742h1.05957l1.45019 1.94824 1.4502-1.94824z"/>
                <path id="path32757" d="m810.31116 538.35382-1.97754 2.66113 2.08008 2.80762h-1.05957l-1.5918-2.14844-1.5918 2.14844h-1.05957l2.12403-2.86133-1.94336-2.60742h1.05957l1.45019 1.94824 1.4502-1.94824z"/>
                <path id="path32759" d="m816.22913 538.35382-1.97754 2.66113 2.08008 2.80762h-1.05958l-1.59179-2.14844-1.5918 2.14844h-1.05957l2.12402-2.86133-1.94336-2.60742h1.05958l1.45019 1.94824 1.4502-1.94824z"/>
                <path id="path32761" d="m822.14709 538.35382-1.97753 2.66113 2.08007 2.80762h-1.05957l-1.59179-2.14844-1.5918 2.14844h-1.05957l2.12402-2.86133-1.94336-2.60742h1.05957l1.4502 1.94824 1.45019-1.94824z"/>
                <path id="path32763" d="m828.06506 538.35382-1.97754 2.66113 2.08008 2.80762h-1.05957l-1.59179-2.14844-1.5918 2.14844h-1.05957l2.12402-2.86133-1.94336-2.60742h1.05957l1.4502 1.94824 1.45019-1.94824z"/>
                <path id="path32765" d="m833.98303 538.35382-1.97754 2.66113 2.08008 2.80762h-1.05957l-1.5918-2.14844-1.59179 2.14844h-1.05957l2.12402-2.86133-1.94336-2.60742h1.05957l1.4502 1.94824 1.45019-1.94824z"/>
              </g>
              <g id="text28756-3" aria-label="xxxxxxx">
                <path id="path32720" d="m800.93231 516.24414-1.97754 2.66113 2.08008 2.80762h-1.05957l-1.5918-2.14844-1.59179 2.14844h-1.05957l2.12402-2.86133-1.94336-2.60742h1.05957l1.4502 1.94824 1.45019-1.94824z"/>
                <path id="path32722" d="m806.85028 516.24414-1.97754 2.66113 2.08008 2.80762h-1.05957l-1.5918-2.14844-1.59179 2.14844h-1.05957l2.12402-2.86133-1.94336-2.60742h1.05957l1.4502 1.94824 1.45019-1.94824z"/>
                <path id="path32724" d="m812.76825 516.24414-1.97754 2.66113 2.08008 2.80762h-1.05957l-1.5918-2.14844-1.5918 2.14844h-1.05957l2.12403-2.86133-1.94336-2.60742h1.05957l1.45019 1.94824 1.4502-1.94824z"/>
                <path id="path32726" d="m818.68622 516.24414-1.97754 2.66113 2.08008 2.80762h-1.05957l-1.5918-2.14844-1.5918 2.14844h-1.05957l2.12403-2.86133-1.94336-2.60742h1.05957l1.45019 1.94824 1.4502-1.94824z"/>
                <path id="path32728" d="m824.60419 516.24414-1.97754 2.66113 2.08008 2.80762h-1.05957l-1.5918-2.14844-1.5918 2.14844h-1.05957l2.12403-2.86133-1.94336-2.60742h1.05957l1.45019 1.94824 1.4502-1.94824z"/>
                <path id="path32730" d="m830.52216 516.24414-1.97754 2.66113 2.08007 2.80762h-1.05957l-1.59179-2.14844-1.5918 2.14844h-1.05957l2.12402-2.86133-1.94336-2.60742h1.05957l1.4502 1.94824 1.4502-1.94824z"/>
                <path id="path32732" d="m836.44012 516.24414-1.97753 2.66113 2.08007 2.80762h-1.05957l-1.59179-2.14844-1.5918 2.14844h-1.05957l2.12402-2.86133-1.94336-2.60742h1.05957l1.4502 1.94824 1.45019-1.94824z"/>
              </g>
              <g id="text28756" aria-label="xxx">
                <path id="path32695" d="m805.46887 495.31107-1.97754 2.66113 2.08008 2.80762h-1.05957l-1.5918-2.14844-1.59179 2.14844h-1.05957l2.12402-2.86133-1.94336-2.60742h1.05957l1.4502 1.94824 1.45019-1.94824z"/>
                <path id="path32697" d="m811.38684 495.31107-1.97754 2.66113 2.08008 2.80762h-1.05957l-1.5918-2.14844-1.59179 2.14844h-1.05957l2.12402-2.86133-1.94336-2.60742h1.05957l1.4502 1.94824 1.45019-1.94824z"/>
                <path id="path32699" d="m817.30481 495.31107-1.97754 2.66113 2.08008 2.80762h-1.05957l-1.5918-2.14844-1.5918 2.14844h-1.05957l2.12403-2.86133-1.94336-2.60742h1.05957l1.45019 1.94824 1.4502-1.94824z"/>
              </g>
            </g>
          </g>
          <text id="svg-roboq-intro-obj-ready-text" x="1090.0654" y="546.84778" style="font-family:sans-serif;font-size:31.7045px;line-height:1.25;stroke-width:.216926" xml:space="preserve"><tspan id="tspan93555" x="1090.0654" y="546.84778" style="font-size:31.7045px;stroke-width:.216926">READY</tspan></text>
          <path id="path2150-7-5-3" d="m1034.2534 516.79936v10.84628h-19.1896c-0.4088 0-0.7425 0.33373-0.7425 0.74256v14.18359c0 0.40882 0.3337 0.74256 0.7425 0.74256h19.1896v10.84628l22.5269-18.35525z" style="fill:#1a1a1a;stroke-width:.183552"/>
          <text id="text94247" x="1061.7203" y="620.4126" style="font-family:sans-serif;font-size:17.5209px;line-height:1.25;stroke-width:.216926" xml:space="preserve"><tspan id="tspan171830" x="1061.7203" y="620.4126" style="font-size:17.5209px;stroke-width:.216926;text-align:center;text-anchor:middle">Import the XML &amp;</tspan><tspan id="tspan176328" x="1061.7203" y="642.48761" style="font-size:17.5209px;stroke-width:.216926;text-align:center;text-anchor:middle">final check</tspan></text>
          <text id="text5291" x="769.99139" y="501.13782" style="font-family:sans-serif;font-size:12px;line-height:1.85" xml:space="preserve"><tspan id="tspan5289" x="769.99139" y="501.13782" style="font-size:12px;text-align:end;text-anchor:end">App. info</tspan><tspan id="tspan10465" x="769.99139" y="523.33783" style="font-size:12px;text-align:end;text-anchor:end">US patent. info</tspan><tspan id="tspan10467" x="769.99139" y="545.53784" style="font-size:12px;text-align:end;text-anchor:end">Foreign patent. info</tspan><tspan id="tspan10469" x="769.99139" y="567.73779" style="font-size:12px;text-align:end;text-anchor:end">non-patent. info</tspan></text>
        </g>
      </g>
    </g>
  </g>
  <text id="svg-roboq-obj-catchphrase" x="15.067039" y="310.75705" style="font-family:sans-serif;font-size:36.9762px;line-height:0;stroke-width:.660289" xml:space="preserve"><tspan id="tspan56885" x="15.067039" y="310.75705" style="fill:#1a1a1a;font-size:36.9762px;line-height:1.55;stroke-width:.660289">Filling IDS-form is tedious</tspan><tspan id="tspan59751" x="15.067039" y="368.07016" style="fill:#1a1a1a;font-size:36.9762px;line-height:1.55;stroke-width:.660289">Time consuming</tspan><tspan id="tspan4986" x="15.067039" y="425.38327" style="fill:#1a1a1a;font-size:36.9762px;line-height:1.55;stroke-width:.660289">Your time, your cost</tspan><tspan id="tspan56446" x="15.067039" y="471.63232" style="fill:#1a1a1a;font-size:26.4115px;line-height:1.54;stroke-width:.660289">We offer cheap yet effective way to</tspan><tspan id="tspan58040" x="15.067039" y="507.02374" style="fill:#1a1a1a;font-size:26.4115px;line-height:1.14;stroke-width:.660289">save your time</tspan><tspan id="tspan62140" x="15.067039" y="537.13287" style="fill:#1a1a1a;font-size:26.4115px;line-height:1.14;stroke-width:.660289"/><tspan id="tspan40716" x="15.067039" y="583.9856" style="fill:#1a1a1a;font-size:31.6938px;line-height:1.92;stroke-width:.660289">SAFE | QUICK | EFFECTIVE</tspan></text>
  <g id="svg-roboq-grp-authbutton">
    <g id="g1052" transform="matrix(.64837838 0 0 .64837838 249.65141 9.664576)">
      <rect id="svg-roboq-obj-signinbutton" x="546.41266" y="95.932732" width="148.79964" height="50.479626" ry="17.091911" style="fill:#afdde9;stroke-width:.944364"/>
      <g id="text2576" style="fill:#1a1a1a" aria-label="Sign In">
        <path id="path1001" d="m583.39844 107.43817v3.07813q-1.79688-0.85938-3.39063-1.28125-1.59375-0.42188-3.07812-0.42188-2.57813 0-3.98438 1-1.39062 1-1.39062 2.84375 0 1.54688 0.92187 2.34375 0.9375 0.78125 3.53125 1.26563l1.90625 0.39062q3.53125 0.67188 5.20313 2.375 1.6875 1.6875 1.6875 4.53125 0 3.39063-2.28125 5.14063-2.26563 1.75-6.65625 1.75-1.65625 0-3.53125-0.375-1.85938-0.375-3.85938-1.10938v-3.25q1.92188 1.07813 3.76563 1.625 1.84375 0.54688 3.625 0.54688 2.70312 0 4.17187-1.0625t1.46875-3.03125q0-1.71875-1.0625-2.6875-1.04687-0.96875-3.45312-1.45313l-1.92188-0.375q-3.53125-0.70312-5.10937-2.20312-1.57813-1.5-1.57813-4.17188 0-3.09375 2.17188-4.875 2.1875-1.78125 6.01562-1.78125 1.64063 0 3.34375 0.29688 1.70313 0.29687 3.48438 0.89062z"/>
        <path id="path1003" d="m589.60156 112.50067h2.875v17.5h-2.875zm0-6.8125h2.875v3.64063h-2.875z"/>
        <path id="path1005" d="m610.00781 121.04755q0-3.125-1.29687-4.84375-1.28125-1.71875-3.60938-1.71875-2.3125 0-3.60937 1.71875-1.28125 1.71875-1.28125 4.84375 0 3.10937 1.28125 4.82812 1.29687 1.71875 3.60937 1.71875 2.32813 0 3.60938-1.71875 1.29687-1.71875 1.29687-4.82812zm2.875 6.78125q0 4.46875-1.98437 6.64062-1.98438 2.1875-6.07813 2.1875-1.51562 0-2.85937-0.23437-1.34375-0.21875-2.60938-0.6875v-2.79688q1.26563 0.6875 2.5 1.01563 1.23438 0.32812 2.51563 0.32812 2.82812 0 4.23437-1.48437 1.40625-1.46875 1.40625-4.45313v-1.42187q-0.89062 1.54687-2.28125 2.3125-1.39062 0.76562-3.32812 0.76562-3.21875 0-5.1875-2.45312-1.96875-2.45313-1.96875-6.5 0-4.0625 1.96875-6.51563 1.96875-2.45312 5.1875-2.45312 1.9375 0 3.32812 0.76562 1.39063 0.76563 2.28125 2.3125v-2.65625h2.875z"/>
        <path id="path1007" d="m633.35156 119.43817v10.5625h-2.875v-10.46875q0-2.48437-0.96875-3.71875-0.96875-1.23437-2.90625-1.23437-2.32812 0-3.67187 1.48437-1.34375 1.48438-1.34375 4.04688v9.89062h-2.89063v-17.5h2.89063v2.71875q1.03125-1.57812 2.42187-2.35937 1.40625-0.78125 3.23438-0.78125 3.01562 0 4.5625 1.875 1.54687 1.85937 1.54687 5.48437z"/>
        <path id="path1009" d="m649.38281 106.67255h3.15625v23.32812h-3.15625z"/>
        <path id="path1011" d="m673.24219 119.43817v10.5625h-2.875v-10.46875q0-2.48437-0.96875-3.71875-0.96875-1.23437-2.90625-1.23437-2.32813 0-3.67188 1.48437-1.34375 1.48438-1.34375 4.04688v9.89062h-2.89062v-17.5h2.89062v2.71875q1.03125-1.57812 2.42188-2.35937 1.40625-0.78125 3.23437-0.78125 3.01563 0 4.5625 1.875 1.54688 1.85937 1.54688 5.48437z"/>
      </g>
    </g>
    <g id="text33777" transform="matrix(.64837838 0 0 .64837838 249.65141 9.664576)" style="fill:#1a1a1a" aria-label="   /   ">
      <path id="path1100" d="m711.88281 108.02411h2.65625l-8.125 26.29687h-2.65625z" style="fill:#1a1a1a"/>
    </g>
    <g id="g1042" transform="matrix(.64837838 0 0 .64837838 249.65141 9.664576)">
      <rect id="svg-roboq-obj-regbutton" x="724.78766" y="95.932732" width="148.79964" height="50.479626" ry="17.091911" style="fill:#aade87;opacity:.965652;stroke-width:.944364"/>
      <g id="text36079" aria-label="Register">
        <path id="path963" d="m745.94531 119.06317q1.01563 0.34375 1.96875 1.46875 0.96875 1.125 1.9375 3.09375l3.20313 6.375h-3.39063l-2.98437-5.98437q-1.15625-2.34375-2.25-3.10938-1.07813-0.76562-2.95313-0.76562h-3.4375v9.85937h-3.15625v-23.32812h7.125q4 0 5.96875 1.67187 1.96875 1.67188 1.96875 5.04688 0 2.20312-1.03125 3.65625-1.01562 1.45312-2.96875 2.01562zm-7.90625-9.79687v8.28125h3.96875q2.28125 0 3.4375-1.04688 1.17188-1.0625 1.17188-3.10937 0-2.04688-1.17188-3.07813-1.15625-1.04687-3.4375-1.04687z"/>
        <path id="path965" d="m770.52344 120.53192v1.40625h-13.21875q0.1875 2.96875 1.78125 4.53125 1.60937 1.54688 4.46875 1.54688 1.65625 0 3.20312-0.40625 1.5625-0.40625 3.09375-1.21875v2.71875q-1.54687 0.65625-3.17187 1t-3.29688 0.34375q-4.1875 0-6.64062-2.4375-2.4375-2.4375-2.4375-6.59375 0-4.29688 2.3125-6.8125 2.32812-2.53125 6.26562-2.53125 3.53125 0 5.57813 2.28125 2.0625 2.26562 2.0625 6.17187zm-2.875-0.84375q-0.0312-2.35937-1.32813-3.76562-1.28125-1.40625-3.40625-1.40625-2.40625 0-3.85937 1.35937-1.4375 1.35938-1.65625 3.82813z"/>
        <path id="path967" d="m786.75781 121.04755q0-3.125-1.29687-4.84375-1.28125-1.71875-3.60938-1.71875-2.3125 0-3.60937 1.71875-1.28125 1.71875-1.28125 4.84375 0 3.10937 1.28125 4.82812 1.29687 1.71875 3.60937 1.71875 2.32813 0 3.60938-1.71875 1.29687-1.71875 1.29687-4.82812zm2.875 6.78125q0 4.46875-1.98437 6.64062-1.98438 2.1875-6.07813 2.1875-1.51562 0-2.85937-0.23437-1.34375-0.21875-2.60938-0.6875v-2.79688q1.26563 0.6875 2.5 1.01563 1.23438 0.32812 2.51563 0.32812 2.82812 0 4.23437-1.48437 1.40625-1.46875 1.40625-4.45313v-1.42187q-0.89062 1.54687-2.28125 2.3125-1.39062 0.76562-3.32812 0.76562-3.21875 0-5.1875-2.45312-1.96875-2.45313-1.96875-6.5 0-4.0625 1.96875-6.51563 1.96875-2.45312 5.1875-2.45312 1.9375 0 3.32812 0.76562 1.39063 0.76563 2.28125 2.3125v-2.65625h2.875z"/>
        <path id="path969" d="m795.55469 112.50067h2.875v17.5h-2.875zm0-6.8125h2.875v3.64063h-2.875z"/>
        <path id="path971" d="m815.60156 113.0163v2.71875q-1.21875-0.625-2.53125-0.9375t-2.71875-0.3125q-2.14062 0-3.21875 0.65625-1.0625 0.65625-1.0625 1.96875 0 1 0.76563 1.57812 0.76562 0.5625 3.07812 1.07813l0.98438 0.21875q3.0625 0.65625 4.34375 1.85937 1.29687 1.1875 1.29687 3.32813 0 2.4375-1.9375 3.85937-1.92187 1.42188-5.29687 1.42188-1.40625 0-2.9375-0.28125-1.51563-0.26563-3.20313-0.8125v-2.96875q1.59375 0.82812 3.14063 1.25 1.54687 0.40625 3.0625 0.40625 2.03125 0 3.125-0.6875 1.09375-0.70313 1.09375-1.96875 0-1.17188-0.79688-1.79688-0.78125-0.625-3.45312-1.20312l-1-0.23438q-2.67188-0.5625-3.85938-1.71875-1.1875-1.17187-1.1875-3.20312 0-2.46875 1.75-3.8125t4.96875-1.34375q1.59375 0 3 0.23437 1.40625 0.23438 2.59375 0.70313z"/>
        <path id="path973" d="m823.96094 107.53192v4.96875h5.92187v2.23438h-5.92187v9.5q0 2.14062 0.57812 2.75 0.59375 0.60937 2.39063 0.60937h2.95312v2.40625h-2.95312q-3.32813 0-4.59375-1.23437-1.26563-1.25-1.26563-4.53125v-9.5h-2.10937v-2.23438h2.10937v-4.96875z"/>
        <path id="path975" d="m848.63281 120.53192v1.40625h-13.21875q0.1875 2.96875 1.78125 4.53125 1.60938 1.54688 4.46875 1.54688 1.65625 0 3.20313-0.40625 1.5625-0.40625 3.09375-1.21875v2.71875q-1.54688 0.65625-3.17188 1t-3.29687 0.34375q-4.1875 0-6.64063-2.4375-2.4375-2.4375-2.4375-6.59375 0-4.29688 2.3125-6.8125 2.32813-2.53125 6.26563-2.53125 3.53125 0 5.57812 2.28125 2.0625 2.26562 2.0625 6.17187zm-2.875-0.84375q-0.0312-2.35937-1.32812-3.76562-1.28125-1.40625-3.40625-1.40625-2.40625 0-3.85938 1.35937-1.4375 1.35938-1.65625 3.82813z"/>
        <path id="path977" d="m863.49219 115.18817q-0.48438-0.28125-1.0625-0.40625-0.5625-0.14062-1.25-0.14062-2.4375 0-3.75 1.59375-1.29688 1.57812-1.29688 4.54687v9.21875h-2.89062v-17.5h2.89062v2.71875q0.90625-1.59375 2.35938-2.35937 1.45312-0.78125 3.53125-0.78125 0.29687 0 0.65625 0.0469 0.35937 0.0312 0.79687 0.10938z"/>
      </g>
    </g>
    <rect id="rect5307" x="594.789" y="113.99374" width="230.42204" height=".76549321" ry=".3087219" style="fill:#1a1a1a;stroke-width:.263155"/>
  </g>
  <g id="svg-roboq-grp-doclink" transform="matrix(.89535823 0 0 .89535823 74.295652 83.850227)">
    <g id="svg-roboq-obj-downloadtemplate" style="stroke-width:.799805" aria-label="1 Download template">
      <path id="path153978" d="m269.85892 793.4468h4.124v-14.23405l-4.48641 0.89978v-2.29944l4.46142-0.89978h2.52439v16.53349h4.124v2.12449h-10.7474z" style="fill:#447821"/>
      <path id="path153980" d="m296.14006 778.98781v14.50898h3.04926q3.86156 0 5.64863-1.74957 1.79957-1.74958 1.79957-5.52367 0-3.74909-1.79957-5.48617-1.78707-1.74957-5.64863-1.74957zm-2.52439-2.0745h5.18624q5.42369 0 7.96058 2.26195 2.53688 2.24946 2.53688 7.04829 0 4.82384-2.54938 7.08579t-7.94808 2.26195h-5.18624z" style="fill:#447821"/>
      <path id="path153982" d="m318.64711 783.18679q-1.84956 0-2.9243 1.44965-1.07474 1.43715-1.07474 3.94904t1.06225 3.96154q1.07474 1.43715 2.93679 1.43715 1.83705 0 2.91179-1.44965 1.07474-1.44964 1.07474-3.94904 0-2.4869-1.07474-3.93654-1.07474-1.46215-2.91179-1.46215zm0-1.94953q2.99927 0 4.71135 1.94953 1.71209 1.94953 1.71209 5.39869 0 3.43667-1.71209 5.39869-1.71208 1.94953-4.71135 1.94953-3.01177 0-4.72386-1.94953-1.69959-1.96202-1.69959-5.39869 0-3.44916 1.69959-5.39869 1.71209-1.94953 4.72386-1.94953z" style="fill:#447821"/>
      <path id="path153984" d="m327.54495 781.57468h2.29944l2.87431 10.92235 2.8618-10.92235h2.71185l2.8743 10.92235 2.86181-10.92235h2.29944l-3.66161 13.99661h-2.71185l-3.01177-11.47222-3.02426 11.47222h-2.71185z" style="fill:#447821"/>
      <path id="path153986" d="m361.44924 787.12334v8.44795h-2.29944v-8.37297q0-1.98702-0.77482-2.97428-0.77481-0.98726-2.32443-0.98726-1.86205 0-2.93679 1.18721t-1.07474 3.23672v7.91058h-2.31194v-13.99661h2.31194v2.17447q0.8248-1.26219 1.93703-1.88704 1.12473-0.62485 2.58687-0.62485 2.41192 0 3.64912 1.49964 1.2372 1.48714 1.2372 4.38644z" style="fill:#447821"/>
      <path id="path153988" d="m366.03563 776.126h2.29944v19.44529h-2.29944z" style="fill:#447821"/>
      <path id="path153990" d="m378.57008 783.18679q-1.84955 0-2.92429 1.44965-1.07474 1.43715-1.07474 3.94904t1.06225 3.96154q1.07473 1.43715 2.93678 1.43715 1.83706 0 2.9118-1.44965 1.07474-1.44964 1.07474-3.94904 0-2.4869-1.07474-3.93654-1.07474-1.46215-2.9118-1.46215zm0-1.94953q2.99928 0 4.71136 1.94953 1.71209 1.94953 1.71209 5.39869 0 3.43667-1.71209 5.39869-1.71208 1.94953-4.71136 1.94953-3.01177 0-4.72385-1.94953-1.69959-1.96202-1.69959-5.39869 0-3.44916 1.69959-5.39869 1.71208-1.94953 4.72385-1.94953z" style="fill:#447821"/>
      <path id="path153992" d="m395.16606 788.53549q-2.78682 0-3.86156 0.63735-1.07474 0.63734-1.07474 2.17447 0 1.22471 0.79981 1.94953 0.8123 0.71233 2.19946 0.71233 1.91204 0 3.06176-1.34968 1.16222-1.36217 1.16222-3.61162v-0.51238zm4.58639-0.94977v7.98557h-2.29944v-2.12449q-0.78731 1.27469-1.96203 1.88705-1.17471 0.59985-2.8743 0.59985-2.14948 0-3.42417-1.19971-1.26219-1.2122-1.26219-3.23671 0-2.36193 1.57461-3.56164 1.58712-1.19971 4.72386-1.19971h3.22422v-0.22495q0-1.58711-1.04975-2.4494-1.03725-0.87479-2.92429-0.87479-1.19971 0-2.33693 0.28743-1.13723 0.28743-2.18697 0.86229v-2.12448q1.26219-0.48739 2.4494-0.72483 1.18722-0.24994 2.31194-0.24994 3.03677 0 4.53641 1.57462 1.49963 1.57462 1.49963 4.77384z" style="fill:#447821"/>
      <path id="path153994" d="m413.69907 783.69917v-7.57317h2.29945v19.44529h-2.29945v-2.09949q-0.72482 1.24969-1.83705 1.86205-1.09974 0.59985-2.64936 0.59985-2.53689 0-4.1365-2.02451-1.58711-2.02451-1.58711-5.32371t1.58711-5.32371q1.59961-2.02451 4.1365-2.02451 1.54962 0 2.64936 0.61235 1.11223 0.59986 1.83705 1.84956zm-7.8356 4.88631q0 2.53689 1.03725 3.98654 1.04975 1.43715 2.8743 1.43715 1.82456 0 2.87431-1.43715 1.04974-1.44965 1.04974-3.98654 0-2.53688-1.04974-3.97404-1.04975-1.44964-2.87431-1.44964-1.82455 0-2.8743 1.44964-1.03725 1.43716-1.03725 3.97404z" style="fill:#447821"/>
      <path id="path153996" d="m431.14485 777.60064v3.97404h4.73635v1.78707h-4.73635v7.59816q0 1.71208 0.46238 2.19946 0.47489 0.48739 1.91204 0.48739h2.36193v1.92453h-2.36193q-2.66185 0-3.67411-0.98726-1.01225-0.99976-1.01225-3.62412v-7.59816h-1.6871v-1.78707h1.6871v-3.97404z" style="fill:#447821"/>
      <path id="path153998" d="m450.87758 787.99812v1.12473h-10.57244q0.14996 2.37443 1.42465 3.62412 1.28719 1.2372 3.57414 1.2372 1.32468 0 2.56188-0.32492 1.24969-0.32492 2.4744-0.97476v2.17447q-1.2372 0.52487-2.53689 0.79981-1.29968 0.27493-2.63686 0.27493-3.34919 0-5.31121-1.94953-1.94953-1.94952-1.94953-5.27372 0-3.43667 1.84955-5.44868 1.86205-2.02451 5.01129-2.02451 2.82431 0 4.46142 1.82456 1.6496 1.81206 1.6496 4.9363zm-2.29945-0.67483q-0.025-1.88705-1.06224-3.01177-1.02475-1.12473-2.72434-1.12473-1.92453 0-3.08675 1.08724-1.14972 1.08723-1.32468 3.06175z" style="fill:#447821"/>
      <path id="path154000" d="m465.54902 784.26153q0.86229-1.54963 2.062-2.28695t2.82432-0.73732q2.18697 0 3.37418 1.53713 1.18721 1.52463 1.18721 4.34895v8.44795h-2.31194v-8.37297q0-2.01202-0.71232-2.98678-0.71233-0.97476-2.17448-0.97476-1.78706 0-2.82431 1.18721t-1.03725 3.23672v7.91058h-2.31194v-8.37297q0-2.02451-0.71233-2.98678-0.71233-0.97476-2.19947-0.97476-1.76207 0-2.79932 1.19971-1.03725 1.18721-1.03725 3.22422v7.91058h-2.31194v-13.99661h2.31194v2.17447q0.78731-1.28719 1.88705-1.89954 1.09973-0.61235 2.61186-0.61235 1.52463 0 2.58688 0.77481 1.07474 0.77482 1.58711 2.24946z" style="fill:#447821"/>
      <path id="path154002" d="m481.80758 793.4718v7.4232h-2.31194v-19.32032h2.31194v2.12449q0.72482-1.2497 1.82456-1.84956 1.11223-0.61235 2.64936-0.61235 2.54938 0 4.13649 2.02451 1.59962 2.02451 1.59962 5.32371t-1.59962 5.32371q-1.58711 2.02451-4.13649 2.02451-1.53713 0-2.64936-0.59985-1.09974-0.61236-1.82456-1.86205zm7.82311-4.88632q0-2.53688-1.04975-3.97404-1.03725-1.44964-2.86181-1.44964t-2.8743 1.44964q-1.03725 1.43716-1.03725 3.97404 0 2.53689 1.03725 3.98654 1.04974 1.43715 2.8743 1.43715t2.86181-1.43715q1.04975-1.44965 1.04975-3.98654z" style="fill:#447821"/>
      <path id="path154004" d="m495.82918 776.126h2.29945v19.44529h-2.29945z" style="fill:#447821"/>
      <path id="path154006" d="m509.30092 788.53549q-2.78682 0-3.86156 0.63735-1.07474 0.63734-1.07474 2.17447 0 1.22471 0.7998 1.94953 0.81231 0.71233 2.19947 0.71233 1.91204 0 3.06176-1.34968 1.16222-1.36217 1.16222-3.61162v-0.51238zm4.58639-0.94977v7.98557h-2.29944v-2.12449q-0.78731 1.27469-1.96203 1.88705-1.17471 0.59985-2.8743 0.59985-2.14948 0-3.42417-1.19971-1.2622-1.2122-1.2622-3.23671 0-2.36193 1.57462-3.56164 1.58712-1.19971 4.72386-1.19971h3.22422v-0.22495q0-1.58711-1.04975-2.4494-1.03725-0.87479-2.92429-0.87479-1.19971 0-2.33693 0.28743-1.13723 0.28743-2.18697 0.86229v-2.12448q1.26219-0.48739 2.4494-0.72483 1.18721-0.24994 2.31194-0.24994 3.03677 0 4.5364 1.57462 1.49964 1.57462 1.49964 4.77384z" style="fill:#447821"/>
      <path id="path154008" d="m520.89811 777.60064v3.97404h4.73635v1.78707h-4.73635v7.59816q0 1.71208 0.46239 2.19946 0.47488 0.48739 1.91204 0.48739h2.36192v1.92453h-2.36192q-2.66186 0-3.67411-0.98726-1.01226-0.99976-1.01226-3.62412v-7.59816h-1.68709v-1.78707h1.68709v-3.97404z" style="fill:#447821"/>
      <path id="path154010" d="m540.63084 787.99812v1.12473h-10.57244q0.14997 2.37443 1.42466 3.62412 1.28719 1.2372 3.57413 1.2372 1.32468 0 2.56188-0.32492 1.2497-0.32492 2.4744-0.97476v2.17447q-1.2372 0.52487-2.53688 0.79981-1.29969 0.27493-2.63686 0.27493-3.34919 0-5.31122-1.94953-1.94953-1.94952-1.94953-5.27372 0-3.43667 1.84956-5.44868 1.86204-2.02451 5.01128-2.02451 2.82432 0 4.46142 1.82456 1.6496 1.81206 1.6496 4.9363zm-2.29944-0.67483q-0.025-1.88705-1.06224-3.01177-1.02476-1.12473-2.72434-1.12473-1.92454 0-3.08676 1.08724-1.14972 1.08723-1.32468 3.06175z" style="fill:#447821"/>
    </g>
    <g id="text76055" aria-label="|">
      <path id="path154013" d="m567.03892 775.7136v25.5938h-2.12448v-25.5938z"/>
    </g>
    <g id="text76055-3" aria-label="| ">
      <path id="path154016" d="m861.27159 775.7136v25.5938h-2.12449v-25.5938z"/>
    </g>
    <g id="svg-roboq-obj-uploadform" style="fill:#1a1a1a" aria-label="2 Upload your form">
      <path id="path154019" d="m594.35925 793.4468h8.81036v2.12449h-11.84713v-2.12449q1.43715-1.48714 3.91156-3.98653 2.48689-2.51189 3.12424-3.23672 1.2122-1.36217 1.68709-2.29944 0.48738-0.94977 0.48738-1.86205 0-1.48714-1.04974-2.42441-1.03725-0.93727-2.71185-0.93727-1.18721 0-2.51189 0.4124-1.31218 0.4124-2.81182 1.24969v-2.54938q1.52463-0.61235 2.84931-0.92477 1.32468-0.31243 2.42441-0.31243 2.8993 0 4.62388 1.44965 1.72459 1.44965 1.72459 3.87406 0 1.14972-0.4374 2.18697-0.42489 1.02475-1.56212 2.42441-0.31242 0.36242-1.98702 2.0995-1.67459 1.72458-4.72385 4.83632z"/>
      <path id="path154021" d="m616.09148 776.91331h2.53689v11.33475q0 2.99928 1.08724 4.32396 1.08723 1.31218 3.52414 1.31218 2.42442 0 3.51165-1.31218 1.08724-1.32468 1.08724-4.32396v-11.33475h2.53688v11.64718q0 3.64911-1.81206 5.51116-1.79956 1.86205-5.32371 1.86205-3.53664 0-5.3487-1.86205-1.79957-1.86205-1.79957-5.51116z"/>
      <path id="path154023" d="m637.23636 793.4718v7.4232h-2.31194v-19.32032h2.31194v2.12449q0.72482-1.2497 1.82456-1.84956 1.11223-0.61235 2.64936-0.61235 2.54938 0 4.13649 2.02451 1.59962 2.02451 1.59962 5.32371t-1.59962 5.32371q-1.58711 2.02451-4.13649 2.02451-1.53713 0-2.64936-0.59985-1.09974-0.61236-1.82456-1.86205zm7.8231-4.88632q0-2.53688-1.04974-3.97404-1.03725-1.44964-2.86181-1.44964t-2.8743 1.44964q-1.03725 1.43716-1.03725 3.97404 0 2.53689 1.03725 3.98654 1.04974 1.43715 2.8743 1.43715t2.86181-1.43715q1.04974-1.44965 1.04974-3.98654z"/>
      <path id="path154025" d="m651.25797 776.126h2.29944v19.44529h-2.29944z"/>
      <path id="path154027" d="m663.79243 783.18679q-1.84955 0-2.92429 1.44965-1.07474 1.43715-1.07474 3.94904t1.06224 3.96154q1.07474 1.43715 2.93679 1.43715 1.83705 0 2.91179-1.44965 1.07474-1.44964 1.07474-3.94904 0-2.4869-1.07474-3.93654-1.07474-1.46215-2.91179-1.46215zm0-1.94953q2.99927 0 4.71136 1.94953 1.71208 1.94953 1.71208 5.39869 0 3.43667-1.71208 5.39869-1.71209 1.94953-4.71136 1.94953-3.01177 0-4.72386-1.94953-1.69959-1.96202-1.69959-5.39869 0-3.44916 1.69959-5.39869 1.71209-1.94953 4.72386-1.94953z"/>
      <path id="path154029" d="m680.38841 788.53549q-2.78683 0-3.86157 0.63735-1.07474 0.63734-1.07474 2.17447 0 1.22471 0.79981 1.94953 0.8123 0.71233 2.19947 0.71233 1.91203 0 3.06175-1.34968 1.16222-1.36217 1.16222-3.61162v-0.51238zm4.58639-0.94977v7.98557h-2.29945v-2.12449q-0.78731 1.27469-1.96202 1.88705-1.17472 0.59985-2.87431 0.59985-2.14948 0-3.42417-1.19971-1.26219-1.2122-1.26219-3.23671 0-2.36193 1.57462-3.56164 1.58711-1.19971 4.72385-1.19971h3.22422v-0.22495q0-1.58711-1.04974-2.4494-1.03725-0.87479-2.92429-0.87479-1.19971 0-2.33694 0.28743-1.13722 0.28743-2.18697 0.86229v-2.12448q1.2622-0.48739 2.44941-0.72483 1.18721-0.24994 2.31194-0.24994 3.03676 0 4.5364 1.57462t1.49964 4.77384z"/>
      <path id="path154031" d="m698.92142 783.69917v-7.57317h2.29944v19.44529h-2.29944v-2.09949q-0.72483 1.24969-1.83706 1.86205-1.09973 0.59985-2.64936 0.59985-2.53688 0-4.13649-2.02451-1.58712-2.02451-1.58712-5.32371t1.58712-5.32371q1.59961-2.02451 4.13649-2.02451 1.54963 0 2.64936 0.61235 1.11223 0.59986 1.83706 1.84956zm-7.8356 4.88631q0 2.53689 1.03724 3.98654 1.04975 1.43715 2.87431 1.43715t2.8743-1.43715q1.04975-1.44965 1.04975-3.98654 0-2.53688-1.04975-3.97404-1.04974-1.44964-2.8743-1.44964t-2.87431 1.44964q-1.03724 1.43716-1.03724 3.97404z"/>
      <path id="path154033" d="m719.91634 796.87097q-0.97477 2.4994-1.89954 3.26171-0.92478 0.76232-2.4744 0.76232h-1.83706v-1.92453h1.34967q0.94977 0 1.47465-0.4499 0.52487-0.44989 1.16222-2.12448l0.4124-1.04975-5.66113-13.77166h2.43691l4.37394 10.94735 4.37394-10.94735h2.43691z"/>
      <path id="path154035" d="m734.66277 783.18679q-1.84956 0-2.9243 1.44965-1.07474 1.43715-1.07474 3.94904t1.06225 3.96154q1.07474 1.43715 2.93679 1.43715 1.83705 0 2.91179-1.44965 1.07474-1.44964 1.07474-3.94904 0-2.4869-1.07474-3.93654-1.07474-1.46215-2.91179-1.46215zm0-1.94953q2.99927 0 4.71135 1.94953 1.71209 1.94953 1.71209 5.39869 0 3.43667-1.71209 5.39869-1.71208 1.94953-4.71135 1.94953-3.01177 0-4.72386-1.94953-1.69959-1.96202-1.69959-5.39869 0-3.44916 1.69959-5.39869 1.71209-1.94953 4.72386-1.94953z"/>
      <path id="path154037" d="m744.66034 790.04763v-8.47295h2.29945v8.38547q0 1.98702 0.77481 2.98677 0.77481 0.98727 2.32444 0.98727 1.86204 0 2.93678-1.18722 1.08724-1.18721 1.08724-3.23671v-7.93558h2.29944v13.99661h-2.29944v-2.14948q-0.8373 1.27469-1.94953 1.89954-1.09973 0.61235-2.56188 0.61235-2.41191 0-3.66161-1.49964-1.2497-1.49963-1.2497-4.38643z"/>
      <path id="path154039" d="m769.22939 783.72416q-0.38741-0.22495-0.84979-0.32492-0.44989-0.11247-0.99976-0.11247-1.94953 0-2.99927 1.27469-1.03725 1.26219-1.03725 3.63662v7.37321h-2.31194v-13.99661h2.31194v2.17447q0.72482-1.27469 1.88704-1.88704 1.16222-0.62485 2.82432-0.62485 0.23744 0 0.52487 0.0375 0.28743 0.025 0.63734 0.0875z"/>
      <path id="path154041" d="m786.86261 776.126v1.91204h-2.19946q-1.2372 0-1.72459 0.49988-0.47488 0.49987-0.47488 1.79956v1.2372h3.78658v1.78707h-3.78658v12.20954h-2.31194v-12.20954h-2.19947v-1.78707h2.19947v-0.97476q0-2.33694 1.08724-3.39918 1.08723-1.07474 3.44916-1.07474z"/>
      <path id="path154043" d="m794.21083 783.18679q-1.84955 0-2.92429 1.44965-1.07474 1.43715-1.07474 3.94904t1.06224 3.96154q1.07474 1.43715 2.93679 1.43715 1.83706 0 2.9118-1.44965 1.07473-1.44964 1.07473-3.94904 0-2.4869-1.07473-3.93654-1.07474-1.46215-2.9118-1.46215zm0-1.94953q2.99927 0 4.71136 1.94953 1.71208 1.94953 1.71208 5.39869 0 3.43667-1.71208 5.39869-1.71209 1.94953-4.71136 1.94953-3.01177 0-4.72385-1.94953-1.69959-1.96202-1.69959-5.39869 0-3.44916 1.69959-5.39869 1.71208-1.94953 4.72385-1.94953z"/>
      <path id="path154045" d="m812.55639 783.72416q-0.38741-0.22495-0.8498-0.32492-0.44989-0.11247-0.99976-0.11247-1.94952 0-2.99927 1.27469-1.03725 1.26219-1.03725 3.63662v7.37321h-2.31194v-13.99661h2.31194v2.17447q0.72483-1.27469 1.88705-1.88704 1.16221-0.62485 2.82431-0.62485 0.23744 0 0.52487 0.0375 0.28743 0.025 0.63735 0.0875z"/>
      <path id="path154047" d="m825.41577 784.26153q0.86229-1.54963 2.062-2.28695t2.82431-0.73732q2.18697 0 3.37419 1.53713 1.18721 1.52463 1.18721 4.34895v8.44795h-2.31194v-8.37297q0-2.01202-0.71233-2.98678t-2.17447-0.97476q-1.78707 0-2.82432 1.18721t-1.03725 3.23672v7.91058h-2.31194v-8.37297q0-2.02451-0.71232-2.98678-0.71233-0.97476-2.19947-0.97476-1.76207 0-2.79932 1.19971-1.03725 1.18721-1.03725 3.22422v7.91058h-2.31194v-13.99661h2.31194v2.17447q0.78731-1.28719 1.88704-1.89954t2.61187-0.61235q1.52463 0 2.58687 0.77481 1.07474 0.77482 1.58712 2.24946z"/>
    </g>
    <g id="svg-roboq-obj-downloadxml" style="fill:#216778" aria-label="3 Download the XML">
      <path id="path154050" d="m897.23984 787.99188q1.81206 0.3874 2.82432 1.61211 1.02475 1.2247 1.02475 3.02426 0 2.76184-1.89954 4.27397t-5.39869 1.51213q-1.17472 0-2.42441-0.23744-1.2372-0.22494-2.56188-0.68733v-2.43691q1.04974 0.61235 2.29944 0.92477 1.2497 0.31243 2.61187 0.31243 2.37442 0 3.61162-0.93728 1.2497-0.93727 1.2497-2.72434 0-1.6496-1.16222-2.57437-1.14972-0.93727-3.21172-0.93727h-2.17448v-2.0745h2.27445q1.86205 0 2.84931-0.73732 0.98726-0.74982 0.98726-2.14948 0-1.43715-1.02475-2.19947-1.01225-0.77481-2.91179-0.77481-1.03725 0-2.22446 0.22494-1.18722 0.22495-2.61187 0.69983v-2.24945q1.43715-0.3999 2.68685-0.59986 1.26219-0.19995 2.37442-0.19995 2.87431 0 4.5489 1.31218 1.6746 1.29969 1.6746 3.52415 0 1.54963-0.88729 2.62437-0.88728 1.06224-2.52439 1.47464z"/>
      <path id="path154052" d="m916.31022 781.46846v14.50898h3.04927q3.86156 0 5.64863-1.74957 1.79956-1.74958 1.79956-5.52366 0-3.7491-1.79956-5.48618-1.78707-1.74957-5.64863-1.74957zm-2.52438-2.0745h5.18624q5.42369 0 7.96057 2.26195 2.53689 2.24946 2.53689 7.0483 0 4.82383-2.54939 7.08578-2.54938 2.26195-7.94807 2.26195h-5.18624z"/>
      <path id="path154054" d="m938.81727 785.66744q-1.84955 0-2.92429 1.44965-1.07474 1.43715-1.07474 3.94904t1.06224 3.96154q1.07474 1.43716 2.93679 1.43716 1.83706 0 2.9118-1.44965t1.07474-3.94905q0-2.48689-1.07474-3.93654-1.07474-1.46215-2.9118-1.46215zm0-1.94953q2.99928 0 4.71136 1.94953 1.71209 1.94953 1.71209 5.39869 0 3.43667-1.71209 5.3987-1.71208 1.94952-4.71136 1.94952-3.01177 0-4.72385-1.94952-1.69959-1.96203-1.69959-5.3987 0-3.44916 1.69959-5.39869 1.71208-1.94953 4.72385-1.94953z"/>
      <path id="path154056" d="m947.71512 784.05533h2.29944l2.8743 10.92236 2.86181-10.92236h2.71184l2.87431 10.92236 2.8618-10.92236h2.29945l-3.66162 13.99661h-2.71184l-3.01177-11.47222-3.02427 11.47222h-2.71184z"/>
      <path id="path154058" d="m981.6194 789.60399v8.44795h-2.29944v-8.37297q0-1.98702-0.77481-2.97428t-2.32444-0.98726q-1.86205 0-2.93679 1.18721t-1.07474 3.23672v7.91058h-2.31194v-13.99661h2.31194v2.17447q0.8248-1.26219 1.93703-1.88704 1.12473-0.62485 2.58688-0.62485 2.41191 0 3.64911 1.49964 1.2372 1.48714 1.2372 4.38644z"/>
      <path id="path154060" d="m986.20579 778.60665h2.29945v19.44529h-2.29945z"/>
      <path id="path154062" d="m998.74025 785.66744q-1.84955 0-2.92429 1.44965-1.07474 1.43715-1.07474 3.94904t1.06224 3.96154q1.07474 1.43716 2.93679 1.43716 1.83705 0 2.91175-1.44965 1.0748-1.44965 1.0748-3.94905 0-2.48689-1.0748-3.93654-1.0747-1.46215-2.91175-1.46215zm0-1.94953q2.99925 0 4.71135 1.94953t1.7121 5.39869q0 3.43667-1.7121 5.3987-1.7121 1.94952-4.71135 1.94952-3.01177 0-4.72386-1.94952-1.69958-1.96203-1.69958-5.3987 0-3.44916 1.69958-5.39869 1.71209-1.94953 4.72386-1.94953z"/>
      <path id="path154064" d="m1015.3362 791.01615q-2.7868 0-3.8615 0.63734-1.0748 0.63735-1.0748 2.17447 0 1.22471 0.7998 1.94953 0.8123 0.71233 2.1995 0.71233 1.912 0 3.0618-1.34967 1.1622-1.36217 1.1622-3.61163v-0.51237zm4.5864-0.94977v7.98556h-2.2994v-2.12448q-0.7873 1.27469-1.962 1.88704-1.1748 0.59985-2.8744 0.59985-2.1494 0-3.4241-1.19971-1.2622-1.2122-1.2622-3.23671 0-2.36193 1.5746-3.56164 1.5871-1.19971 4.7239-1.19971h3.2242v-0.22494q0-1.58712-1.0498-2.44941-1.0372-0.87479-2.9243-0.87479-1.1997 0-2.3369 0.28743t-2.187 0.86229v-2.12448q1.2622-0.48738 2.4494-0.72483 1.1873-0.24994 2.312-0.24994 3.0367 0 4.5364 1.57462 1.4996 1.57462 1.4996 4.77385z"/>
      <path id="path154066" d="m1033.8692 786.17982v-7.57317h2.2995v19.44529h-2.2995v-2.09949q-0.7248 1.2497-1.837 1.86205-1.0997 0.59985-2.6494 0.59985-2.5369 0-4.1365-2.02451-1.5871-2.02451-1.5871-5.32371t1.5871-5.32371q1.5996-2.02451 4.1365-2.02451 1.5497 0 2.6494 0.61236 1.1122 0.59985 1.837 1.84955zm-7.8356 4.88631q0 2.53689 1.0373 3.98654 1.0497 1.43715 2.8743 1.43715 1.8245 0 2.8743-1.43715 1.0497-1.44965 1.0497-3.98654 0-2.53688-1.0497-3.97403-1.0498-1.44965-2.8743-1.44965-1.8246 0-2.8743 1.44965-1.0373 1.43715-1.0373 3.97403z"/>
      <path id="path154068" d="m1051.315 780.08129v3.97404h4.7364v1.78707h-4.7364v7.59816q0 1.71208 0.4624 2.19947 0.4749 0.48738 1.912 0.48738h2.362v1.92453h-2.362q-2.6618 0-3.6741-0.98726-1.0122-0.99976-1.0122-3.62412v-7.59816h-1.6871v-1.78707h1.6871v-3.97404z"/>
      <path id="path154070" d="m1070.7103 789.60399v8.44795h-2.2994v-8.37297q0-1.98702-0.7748-2.97428t-2.3245-0.98726q-1.862 0-2.9368 1.18721-1.0747 1.18721-1.0747 3.23672v7.91058h-2.3119v-19.44529h2.3119v7.62315q0.8248-1.26219 1.937-1.88704 1.1248-0.62485 2.5869-0.62485 2.4119 0 3.6491 1.49964 1.2372 1.48714 1.2372 4.38644z"/>
      <path id="path154072" d="m1087.2688 790.47878v1.12472h-10.5724q0.1499 2.37443 1.4246 3.62413 1.2872 1.2372 3.5742 1.2372 1.3246 0 2.5618-0.32493 1.2497-0.32492 2.4744-0.97476v2.17447q-1.2372 0.52488-2.5368 0.79981-1.2997 0.27493-2.6369 0.27493-3.3492 0-5.3112-1.94952-1.9495-1.94953-1.9495-5.27373 0-3.43666 1.8495-5.44868 1.8621-2.02451 5.0113-2.02451 2.8243 0 4.4614 1.82456 1.6496 1.81206 1.6496 4.93631zm-2.2994-0.67484q-0.025-1.88704-1.0623-3.01177-1.0247-1.12473-2.7243-1.12473-1.9245 0-3.0868 1.08724-1.1497 1.08723-1.3246 3.06176z"/>
      <path id="path154074" d="m1098.3786 779.39396h2.7119l4.6363 6.93582 4.6614-6.93582h2.7119l-5.9986 8.96033 6.3985 9.69765h-2.7119l-5.2487-7.93558-5.2862 7.93558h-2.7244l6.6609-9.96009z"/>
      <path id="path154076" d="m1116.8117 779.39396h3.7615l4.7614 12.69693 4.7863-12.69693h3.7616v18.65798h-2.4619v-16.38353l-4.8113 12.7969h-2.5369l-4.8113-12.7969v16.38353h-2.4494z"/>
      <path id="path154078" d="m1138.8938 779.39396h2.5244v16.5335h9.0853v2.12448h-11.6097z"/>
    </g>
  </g>
  <path id="svg-roboq-obj-uploadformindicator" d="m716.00939 738.7198a18.032078 10.761108 0 0 0-18.03195 10.76143 18.032078 10.761108 0 0 0 5.74997 7.85379l6.08078 7.27489-0.44253-5.13479a18.032078 10.761108 0 0 0 6.64373 0.76609 18.032078 10.761108 0 0 0 18.03197-10.75998 18.032078 10.761108 0 0 0-18.03197-10.76143zm0 1.52346a15.478583 9.2372443 0 0 1 15.47836 9.23797 15.478583 9.2372443 0 0 1-15.47836 9.23652 15.478583 9.2372443 0 0 1-7.84219-1.27826l0.29019 3.35451-4.84461-5.79495a15.478583 9.2372443 0 0 1-3.08173-5.51782 15.478583 9.2372443 0 0 1 15.47834-9.23797z" style="fill:#87cdde;stroke-width:.73649"/>
  <text id="svg-roboq-obj-downloadtemplateindicator" x="427.89627" y="755.88947" style="font-family:sans-serif;font-size:24px;line-height:1.25" xml:space="preserve"><tspan id="tspan2328" x="427.89627" y="755.88947" style="font-family:'Ubuntu Mono';font-size:24px"></tspan></text>
  <text id="svg-roboq-obj-downloadxmlindicator" x="972.70258" y="755.88947" style="font-family:sans-serif;font-size:24px;line-height:1.25" xml:space="preserve"><tspan id="tspan2328-5" x="972.70258" y="755.88947" style="font-family:'Ubuntu Mono';font-size:24px"></tspan></text>
  <text id="text2863" x="622.37891" y="142.3797" style="font-family:sans-serif;font-size:24px;line-height:1.25" xml:space="preserve"><tspan id="tspan2861" x="622.37891" y="142.3797" style="font-size:24px">Welcome back </tspan></text>
</svg>
