<?xml version="1.0" encoding="UTF-8" standalone="no"?>
<svg
   id="svg-roboq"
   width="1420"
   height="850"
   version="1.1"
   viewBox="0 0 1420 850.00002"
   sodipodi:docname="uspto-ids_ink.svg"
   inkscape:version="1.1 (ce6663b3b7, 2021-05-25)"
   xmlns:inkscape="http://www.inkscape.org/namespaces/inkscape"
   xmlns:sodipodi="http://sodipodi.sourceforge.net/DTD/sodipodi-0.dtd"
   xmlns="http://www.w3.org/2000/svg"
   xmlns:svg="http://www.w3.org/2000/svg">
  <sodipodi:namedview
     id="namedview106"
     pagecolor="#ffffff"
     bordercolor="#111111"
     borderopacity="1"
     inkscape:pageshadow="0"
     inkscape:pageopacity="0"
     inkscape:pagecheckerboard="1"
     showgrid="false"
     inkscape:zoom="0.54115914"
     inkscape:cx="624.58522"
     inkscape:cy="387.13196"
     inkscape:window-width="1473"
     inkscape:window-height="752"
     inkscape:window-x="72"
     inkscape:window-y="131"
     inkscape:window-maximized="0"
     inkscape:current-layer="svg-roboq"
     fit-margin-top="200"
     fit-margin-left="200"
     fit-margin-right="200"
     fit-margin-bottom="300" />
  <defs
     id="defs108">
    <rect
       x="54.102832"
       y="469.63484"
       width="171.91006"
       height="200.32636"
       id="rect16762" />
    <rect
       x="1237.9341"
       y="761.59894"
       width="302.39575"
       height="255.87653"
       id="rect20429" />
    <rect
       x="65.929428"
       y="8.3788519"
       width="178.84138"
       height="117.92088"
       id="rect5171" />
  </defs>
  <g
     id="svg-roboq-grp-tutorial"
     transform="matrix(1.0909074,0,0,1.0909074,-101.97681,-43.260383)">
    <g
       id="g2554">
      <g
         id="g198874"
         transform="matrix(0.83432929,0,0,0.83432929,-209.31868,90.076741)">
        <g
           id="svg-roboq-obj-excelicon"
           transform="translate(759.19397,-22.87566)">
          <path
             id="rect874-2"
             d="m 230.6,226.18766 c -14.22,0 -25.2,11.34 -25.2,25.2 v 48.6 c 0,14.22 11.34,25.2 25.2,25.2 h 48.6 c 14.22,0 25.2,-11.34 25.2,-25.2 v -48.6 c 0,-14.22 -11.34,-25.2 -25.2,-25.2 z m 12.24,16.2 h 27 c 6.84,0 12.24,5.4 12.24,12.24 v 27 c 0,6.84 -5.4,12.24 -12.24,12.24 h -27 c -6.84,0 -12.24,-5.4 -12.24,-12.24 v -27 c 0,-6.84 5.4,-12.24 12.24,-12.24 z"
             style="opacity:0.6;fill:#666666;stroke-width:0.468" />
          <rect
             id="rect14893"
             x="218"
             y="231.58766"
             width="64.800003"
             height="63"
             ry="1.512"
             style="fill:#f9f9f9;stroke-width:0.468" />
          <rect
             id="rect14282-56"
             transform="rotate(90)"
             x="229.78766"
             y="-255.8"
             width="64.800003"
             height="3.0600002"
             ry="1.512"
             style="fill:#8dd35f;stroke-width:0.522" />
          <rect
             id="rect14282-56-9"
             transform="rotate(90)"
             x="235.18767"
             y="-268.39999"
             width="64.800003"
             height="3.0600002"
             ry="1.512"
             style="fill:#8dd35f;stroke-width:0.522" />
          <rect
             id="rect14282"
             x="219.8"
             y="249.58766"
             width="64.800003"
             height="3.0600002"
             ry="1.512"
             style="fill:#5aa02c;stroke-width:0.522" />
          <rect
             id="rect14282-7"
             x="218"
             y="260.38766"
             width="64.800003"
             height="3.0600002"
             ry="1.512"
             style="fill:#8dd35f;stroke-width:0.522" />
          <rect
             id="rect14282-5"
             x="219.8"
             y="271.18765"
             width="64.800003"
             height="3.0600002"
             ry="1.512"
             style="fill:#8dd35f;stroke-width:0.522" />
          <rect
             id="rect14282-5-2"
             x="218"
             y="280.18765"
             width="64.800003"
             height="3.0600002"
             ry="1.512"
             style="fill:#8dd35f;stroke-width:0.522" />
          <rect
             id="rect14282-3"
             transform="rotate(90)"
             x="231.58766"
             y="-243.2"
             width="64.800003"
             height="3.0600002"
             ry="1.512"
             style="fill:#5aa02c;stroke-width:0.522" />
          <path
             id="rect874"
             d="m 225.2,222.58766 c -14.22,0 -25.2,11.34 -25.2,25.2 v 48.6 c 0,14.22 11.34,25.2 25.2,25.2 h 48.6 c 14.22,0 25.2,-11.34 25.2,-25.2 v -48.6 c 0,-14.22 -11.34,-25.2 -25.2,-25.2 z m 12.24,16.2 h 27 c 6.84,0 12.24,5.4 12.24,12.24 v 27 c 0,6.84 -5.4,12.24 -12.24,12.24 h -27 c -6.84,0 -12.24,-5.4 -12.24,-12.24 v -27 c 0,-6.84 5.4,-12.24 12.24,-12.24 z"
             style="fill:#8dd35f;stroke-width:0.468" />
          <text
             id="text3038"
             x="217.16682"
             y="311.82162"
             style="font-size:19.8px;line-height:1.25;font-family:sans-serif;stroke-width:0.468"
             xml:space="preserve"><tspan
               id="tspan3036"
               x="217.16682"
               y="311.82162"
               style="font-size:19.8px;fill:#ffffff;stroke-width:0.468">*.XLSX</tspan></text>
          <path
             id="rect13702-3"
             d="m 234.2,234.91963 c -7.38,0 -13.32,4.40803 -13.32,11.78803 v 30.6 c 0,7.38 5.94,13.32 13.32,13.32 h 3.24 c -6.84,0 -12.24,-5.4 -12.24,-12.24 v -27 c 0,-6.84 5.4,-12.24 12.24,-12.24 h 27 c 6.84,0 12.24,5.4 12.24,12.24 v -3.24 c 0,-7.38 -5.94,-13.32 -13.32,-13.32 z m 43.2,41.66803 c 0,7.38 -5.94,13.32 -13.32,13.32 h 0.99 c 6.84,0 12.24,-5.4 12.24,-12.24 z"
             style="fill:#5aa02c;stroke-width:0.432" />
        </g>
        <g
           id="svg-roboq-obj-xmlicon">
          <path
             id="rect874-2-1"
             d="m 1833.574,204.212 c -14.04,0 -25.272,11.232 -25.272,25.272 v 47.268 c 0,14.04 11.232,25.272 25.272,25.272 h 47.268 c 14.04,0 25.272,-11.232 25.272,-25.272 v -47.268 c 0,-14.04 -11.232,-25.272 -25.272,-25.272 z"
             style="opacity:0.6;fill:#666666;stroke-width:0.468" />
          <path
             id="rect874-8"
             d="m 1829.362,200 c -14.04,0 -25.272,11.232 -25.272,25.272 v 47.268 c 0,14.04 11.232,25.272 25.272,25.272 h 47.268 c 14.04,0 25.272,-11.232 25.272,-25.272 v -47.268 c 0,-14.04 -11.232,-25.272 -25.272,-25.272 z"
             style="fill:#87cdde;stroke-width:0.468" />
          <text
             id="text3038-7"
             x="1823.7648"
             y="289.08615"
             style="font-size:19.8px;line-height:1.25;font-family:sans-serif;stroke-width:0.468"
             xml:space="preserve"><tspan
               id="tspan3036-9"
               x="1823.7648"
               y="289.08615"
               style="font-size:19.8px;fill:#ffffff;stroke-width:0.468">*.XML </tspan></text>
          <path
             id="rect874-8-2"
             d="m 1841.7171,211.82956 c -6.4451,0 -11.6012,5.96172 -11.6012,13.37359 v 25.78041 c 0,7.41187 5.1561,13.37359 11.6012,13.37359 h 22.5578 c 6.4451,0 11.6012,-5.96172 11.6012,-13.37359 v -25.78041 c 0,-7.41187 -5.1561,-13.37359 -11.6012,-13.37359 z"
             style="fill:#37abc8;stroke-width:0.225579" />
          <path
             id="rect874-8-2-0"
             d="m 1846.0675,217.61085 c -5.8006,0 -10.4733,5.47834 -10.4733,12.08457 v 22.55786 c 0,6.76736 4.6727,12.08457 10.4733,12.08457 h 19.3353 c 5.8006,0 10.4733,-5.47834 10.4733,-12.08457 v -22.55786 c 0,-6.76736 -4.6727,-12.08457 -10.4733,-12.08457 z"
             style="fill:#f9f9f9;stroke-width:0.209466" />
          <g
             aria-label="&lt;/&gt;"
             id="text57618"
             style="font-size:17.724px;line-height:1.25;fill:#37abc8;stroke-width:0.418932"
             transform="translate(759.19397,-22.87566)">
            <path
               d="m 1091.6774,261.37242 -8.9313,3.17612 8.9313,3.15882 v 1.57508 l -11.0948,-4.02424 v -1.43662 l 11.0948,-4.02425 z"
               id="path3630" />
            <path
               d="m 1098.0556,257.17508 h 1.4712 l -4.5002,14.56518 h -1.4712 z"
               id="path3632" />
            <path
               d="m 1101.4048,261.37242 v -1.57509 l 11.0948,4.02425 v 1.43662 l -11.0948,4.02424 v -1.57508 l 8.9139,-3.15882 z"
               id="path3634" />
          </g>
        </g>
        <text
           id="svg-roboq-intro-obj-roboq-text"
           x="1488.8408"
           y="263.6683"
           style="font-size:43px;line-height:1.25;font-family:sans-serif;fill:#1a1a1a;stroke-width:0.26"
           xml:space="preserve"><tspan
             id="tspan75495"
             x="1488.8408"
             y="263.6683"
             style="font-style:italic;font-weight:bold;font-size:43px;font-family:sans-serif;fill:#1a1a1a;stroke-width:0.26">Roboq</tspan></text>
        <g
           id="svg-roboq-intro-obj-exceltable"
           transform="translate(800.42755,-6.4333)">
          <path
             id="rect15699-7-2-2"
             d="m 447.95769,185.82842 c -10.92,0 -19.6,8.68 -19.6,19.6 v 92.4 c -0.742,5.04 -0.826,8.82 0,10.5 v 2.66 c 0,10.92 8.68,19.6 19.6,19.6 h 64.4 c 10.92,0 19.6,-8.68 19.6,-19.6 v -105 c 0,-10.92 -8.68,-19.6 -19.6,-19.6 z"
             style="opacity:0.6;fill:#666666;stroke-width:0.462" />
          <path
             id="rect15699-7-2"
             d="m 443.75769,183.55764 c -10.92,0 -19.6,8.68 -19.6,19.6 v 92.4 c -0.742,5.04 -0.826,8.82 0,10.5 v 2.66 c 0,10.92 8.68,19.6 19.6,19.6 h 64.4 c 10.92,0 19.6,-8.68 19.6,-19.6 v -105 c 0,-10.92 -8.68,-19.6 -19.6,-19.6 z"
             style="fill:#f9f9f9;stroke-width:0.462" />
          <rect
             id="rect16195-0-92"
             x="424.15768"
             y="269.14529"
             width="103.6"
             height="1.9599999"
             rx="0"
             ry="0.99399996"
             style="fill:#808080;stroke-width:0.336" />
          <rect
             id="rect16195-0-8"
             x="424.15768"
             y="284.54529"
             width="103.6"
             height="1.9599999"
             rx="0"
             ry="0.99399996"
             style="fill:#808080;stroke-width:0.336" />
          <rect
             id="rect16195-0-61"
             x="424.15768"
             y="299.94531"
             width="103.6"
             height="1.9599999"
             rx="0"
             ry="0.99399996"
             style="fill:#808080;stroke-width:0.336" />
          <rect
             id="rect16195-0-0"
             x="426.9577"
             y="315.34531"
             width="99.400002"
             height="1.9599999"
             rx="0"
             ry="0.99399996"
             style="fill:#808080;stroke-width:0.336" />
          <rect
             id="rect16195-02-7"
             transform="rotate(90)"
             x="185.14529"
             y="-481.55768"
             width="142.8"
             height="1.9599999"
             rx="0"
             ry="0.99399996"
             style="fill:#808080;stroke-width:0.392" />
          <rect
             id="rect16195-02-9"
             transform="rotate(90)"
             x="185.14529"
             y="-512.35767"
             width="142.8"
             height="1.9599999"
             rx="0"
             ry="0.99399996"
             style="fill:#808080;stroke-width:0.392" />
          <rect
             id="rect16195-0"
             x="424.15768"
             y="222.9453"
             width="103.6"
             height="1.9599999"
             rx="0"
             ry="0.99399996"
             style="fill:#808080;stroke-width:0.336" />
          <rect
             id="rect16195-0-9"
             x="424.15768"
             y="238.34529"
             width="103.6"
             height="1.9599999"
             rx="0"
             ry="0.99399996"
             style="fill:#808080;stroke-width:0.336" />
          <rect
             id="rect16195-0-6"
             x="424.15768"
             y="253.7453"
             width="103.6"
             height="1.9599999"
             rx="0"
             ry="0.99399996"
             style="fill:#808080;stroke-width:0.336" />
          <rect
             id="rect16195"
             x="424.15768"
             y="207.5453"
             width="102.2"
             height="1.9599999"
             rx="0"
             ry="0.99399996"
             style="fill:#1a1a1a;stroke-width:0.336" />
          <rect
             id="rect16195-02"
             transform="rotate(90)"
             x="185.14529"
             y="-450.75769"
             width="142.8"
             height="1.9599999"
             rx="0"
             ry="0.99399996"
             style="fill:#1a1a1a;stroke-width:0.392" />
          <g
             id="g894"
             transform="matrix(1.4,0,0,1.4,372.35769,146.28686)"
             style="fill:#71c837">
            <path
               id="rect15699-7"
               d="m 51,27 c -7.8,0 -14,6.2 -14,14 v 75 c 0,7.8 6.2,14 14,14 h 46 c 7.8,0 14,-6.2 14,-14 V 41 c 0,-7.8 -6.2,-14 -14,-14 z m 0.69,1.5 h 45 c 7.5,0 14,6.1 14,14 v 73 c 0,7.5 -6.1,14 -14,14 h -45 c -7.5,0 -14,-6.1 -14,-14 v -73 c 0,-7.5 6.1,-14 14,-14 z"
               style="fill:#71c837;stroke-width:0.33" />
          </g>
          <text
             id="text10058"
             x="432.88266"
             y="202.39064"
             style="font-size:13.3px;line-height:1.25;font-family:sans-serif;stroke-width:0.364"
             xml:space="preserve"><tspan
               id="tspan10056"
               x="432.88266"
               y="202.39064"
               style="font-size:13.3px;stroke-width:0.364">A</tspan></text>
          <text
             id="text10058-3"
             x="461.33716"
             y="202.39064"
             style="font-size:13.3px;line-height:1.25;font-family:sans-serif;stroke-width:0.364"
             xml:space="preserve"><tspan
               id="tspan10056-6"
               x="461.33716"
               y="202.39064"
               style="font-size:13.3px;stroke-width:0.364">B</tspan></text>
          <text
             id="text20475"
             x="490.67346"
             y="202.38414"
             style="font-size:13.3px;line-height:1.25;font-family:sans-serif;stroke-width:0.364"
             xml:space="preserve"><tspan
               id="tspan20473"
               x="490.67346"
               y="202.38414"
               style="font-size:13.3px;stroke-width:0.364">C</tspan></text>
          <text
             id="text32145"
             x="434.16437"
             y="218.30154"
             style="font-size:8.96px;line-height:1.25;font-family:sans-serif;stroke-width:0.364"
             xml:space="preserve"><tspan
               id="tspan32143"
               x="434.16437"
               y="218.30154"
               style="stroke-width:0.364">1</tspan></text>
          <text
             id="text32145-62"
             x="434.36185"
             y="233.97362"
             style="font-size:8.96px;line-height:1.25;font-family:sans-serif;stroke-width:0.364"
             xml:space="preserve"><tspan
               id="tspan32143-6"
               x="434.36185"
               y="233.97362"
               style="stroke-width:0.364">2</tspan></text>
          <text
             id="text32145-3"
             x="434.25986"
             y="249.64568"
             style="font-size:8.96px;line-height:1.25;font-family:sans-serif;stroke-width:0.364"
             xml:space="preserve"><tspan
               id="tspan32143-56"
               x="434.25986"
               y="249.64568"
               style="stroke-width:0.364">3</tspan></text>
          <text
             id="text32145-2"
             x="434.27505"
             y="265.32645"
             style="font-size:8.96px;line-height:1.25;font-family:sans-serif;stroke-width:0.364"
             xml:space="preserve"><tspan
               id="tspan32143-9"
               x="434.27505"
               y="265.32645"
               style="stroke-width:0.364">4</tspan></text>
          <text
             id="text32145-1"
             x="434.28809"
             y="280.88129"
             style="font-size:8.96px;line-height:1.25;font-family:sans-serif;stroke-width:0.364"
             xml:space="preserve"><tspan
               id="tspan32143-2"
               x="434.28809"
               y="280.88129"
               style="stroke-width:0.364">5</tspan></text>
          <text
             id="text32145-70"
             x="434.2121"
             y="296.67926"
             style="font-size:8.96px;line-height:1.25;font-family:sans-serif;stroke-width:0.364"
             xml:space="preserve"><tspan
               id="tspan32143-93"
               x="434.2121"
               y="296.67926"
               style="stroke-width:0.364">6</tspan></text>
          <text
             id="text32145-6"
             x="434.25769"
             y="312.36002"
             style="font-size:8.96px;line-height:1.25;font-family:sans-serif;stroke-width:0.364"
             xml:space="preserve"><tspan
               id="tspan32143-0"
               x="434.25769"
               y="312.36002"
               style="stroke-width:0.364">7</tspan></text>
        </g>
        <path
           id="path2150"
           d="m 1142.2404,229.912 v 13 h -23 c -0.49,0 -0.89,0.4 -0.89,0.89 v 17 c 0,0.49 0.4,0.89 0.89,0.89 h 23 v 13 l 27,-22 z"
           style="fill:#b3b3b3;stroke-width:0.22" />
        <path
           id="path2150-7"
           d="m 1411.0317,229.912 v 13 h -23 c -0.49,0 -0.89,0.4 -0.89,0.89 v 17 c 0,0.49 0.4,0.89 0.89,0.89 h 23 v 13 l 27,-22 z"
           style="fill:#666666;stroke-width:0.22" />
        <path
           id="path2150-7-5"
           d="m 1722.3335,229.912 v 13 h -23 c -0.49,0 -0.89,0.4 -0.89,0.89 v 17 c 0,0.49 0.4,0.89 0.89,0.89 h 23 v 13 l 27,-22 z"
           style="fill:#333333;stroke-width:0.22" />
        <text
           id="text18122"
           x="1132.7883"
           y="352.38293"
           style="font-size:21px;line-height:1.25;font-family:sans-serif;stroke-width:0.26"
           xml:space="preserve"><tspan
             id="tspan28818"
             x="1132.7883"
             y="352.38293"
             style="font-size:21px;text-align:center;text-anchor:middle;stroke-width:0.26">Record your data</tspan><tspan
             id="tspan122281"
             x="1132.7883"
             y="378.84131"
             style="font-size:21px;text-align:center;text-anchor:middle;stroke-width:0.26">using our template</tspan></text>
        <text
           id="text18122-5"
           x="1418.0461"
           y="352.38293"
           style="font-size:21px;line-height:1.25;font-family:sans-serif;stroke-width:0.26"
           xml:space="preserve"><tspan
             id="tspan28818-2"
             x="1418.0461"
             y="352.38293"
             style="font-size:21px;text-align:center;text-anchor:middle;stroke-width:0.26">Upload template</tspan><tspan
             id="tspan86653"
             x="1418.0461"
             y="378.84131"
             style="font-size:21px;text-align:center;text-anchor:middle;stroke-width:0.26">to Roboq</tspan></text>
        <text
           id="text18122-5-9"
           x="1727.2131"
           y="354.43448"
           style="font-size:21px;line-height:1.25;font-family:sans-serif;stroke-width:0.26"
           xml:space="preserve"><tspan
             id="tspan86653-2"
             x="1727.2131"
             y="354.43448"
             style="font-size:21px;text-align:center;text-anchor:middle;stroke-width:0.26">Download</tspan><tspan
             id="tspan151812"
             x="1727.2131"
             y="380.89285"
             style="font-size:21px;text-align:center;text-anchor:middle;stroke-width:0.26">the XML</tspan></text>
      </g>
      <g
         id="g33214"
         transform="translate(28.858937)">
        <g
           id="g2413">
          <g
             id="g1565"
             transform="matrix(0.83432929,0,0,0.83432929,480.54261,84.70925)">
            <path
               id="rect13574"
               d="m 586.6598,463.88918 c -0.5,-0.003 -1,0.05 -1.5,0.16 l -66,15 c -5.5,1.2 -8.8,4.7 -10,10 l -28,106 c -1.4,5.5 4.6,9.3 10,10 l 90,15 c 5.6,0.9 10,-4.5 10,-10 l 0.53,-20 c 0.53,-11 0.88,-26 1.1,-41 l 2,-74 c 0.14,-5.1 -3.8,-10 -8.6,-10 z"
               style="opacity:0.6;fill:#666666;stroke-width:0.25" />
            <path
               id="rect13574-7"
               d="m 583.13058,460.35996 c -0.5,-0.003 -1,0.05 -1.5,0.16 l -66,15 c -5.5,1.2 -8.8,4.7 -10,10 l -28,106 c -1.4,5.5 4.6,9.3 10,10 l 90,15 c 5.6,0.9 10,-4.5 10,-10 l 0.53,-20 c 0.53,-11 0.88,-26 1.1,-41 l 2,-74 c 0.14,-5.1 -3.8,-10 -8.6,-10 z"
               style="fill:#f9f9f9;stroke-width:0.25" />
            <path
               id="path11431"
               d="m 515.6598,475.88918 c -5.5,1.2 -8.8,4.7 -10,10 l -28,106 c -1.4,5.5 4.6,9.3 10,10 l 90,15 c 5.6,0.9 10,-4.5 10,-10 l 3.6,-135 c 0.15,-5.6 -4.7,-11 -10,-10 z m 1.3,2.3 63,-15 c 5.3,-1.2 10,4.4 9.8,9.8 l -3.6,131 c -0.15,5.4 -4.5,11 -9.8,9.8 l -87,-15 c -5.4,-0.9 -10,-4.5 -8.7,-9.8 l 26,-102 c 1.4,-5.3 4.5,-8.6 9.8,-9.8 z"
               style="fill:#1a1a1a;stroke-width:0.25" />
          </g>
          <g
             id="svg-roboq-obj-dummycombined">
            <g
               id="svg-roboq-obj-dummysection">
              <g
                 id="g1527"
                 transform="matrix(0.83432929,0,0,0.83432929,480.54261,84.70925)">
                <path
                   id="rect14299-5-2-1"
                   d="m 437.8598,556.88918 c -0.1,-0.004 -0.21,-8e-4 -0.31,0.009 l -63,5.8 c -1.7,0.15 -2.8,1.1 -3.7,2.5 l -14,21 c -0.89,1.4 1.3,2.9 3,3 l 68,4.8 c 1.7,0.12 2.5,-1.4 3,-3 l 9.7,-32 c 0.46,-1.5 -1.1,-3 -2.7,-3 z"
                   style="opacity:0.6;fill:#666666;stroke-width:0.26" />
                <path
                   id="path7873"
                   d="m 435.40136,553.83074 c -0.1,-0.004 -0.21,-8e-4 -0.31,0.009 l -63,5.8 c -1.7,0.15 -2.8,1.1 -3.7,2.5 l -14,21 c -0.89,1.4 1.3,2.9 3,3 l 68,4.8 c 1.7,0.12 2.5,-1.4 3,-3 l 9.7,-32 c 0.46,-1.5 -1.1,-3 -2.7,-3 z"
                   style="fill:#f9f9f9;stroke-width:0.26" />
                <path
                   id="path7875"
                   d="m 372.6598,559.88918 c -1.7,0.15 -2.8,1.1 -3.7,2.5 l -14,21 c -0.89,1.4 1.3,2.9 3,3 l 68,4.8 c 1.7,0.12 2.5,-1.4 3,-3 l 9.7,-32 c 0.49,-1.6 -1.4,-3.2 -3,-3 z m 1.4,0.64 60,-5.8 c 1.6,-0.15 3.4,1.4 2.9,2.9 l -9.7,31 c -0.49,1.5 -1.3,3 -2.9,2.9 l -65,-4.8 c -1.6,-0.12 -4,-1.2 -3.2,-2.5 l 13,-21 c 0.87,-1.3 2.4,-2.1 4,-2.2 z"
                   style="fill:#1a1a1a;stroke-width:0.26" />
              </g>
              <g
                 id="g1532"
                 transform="matrix(0.83432929,0,0,0.83432929,480.54261,84.70925)">
                <path
                   id="rect14299-5-2"
                   d="m 439.2598,529.88918 c -0.1,-0.004 -0.21,-10e-4 -0.31,0.008 l -63,5.8 c -1.7,0.15 -2.8,1.1 -3.7,2.5 l -14,21 c -0.89,1.4 1.3,2.9 3,3 l 68,4.8 c 1.7,0.12 2.5,-1.4 3,-3 l 9.7,-32 c 0.46,-1.5 -1.1,-3 -2.7,-3 z"
                   style="opacity:0.6;fill:#666666;stroke-width:0.26" />
                <path
                   id="path7393"
                   d="m 437.7598,527.88918 c -0.1,-0.004 -0.21,-8e-4 -0.31,0.009 l -63,5.8 c -1.7,0.15 -2.8,1.1 -3.7,2.5 l -14,21 c -0.89,1.4 1.3,2.9 3,3 l 68,4.8 c 1.7,0.12 2.5,-1.4 3,-3 l 9.7,-32 c 0.46,-1.5 -1.1,-3 -2.7,-3 z"
                   style="fill:#f9f9f9;stroke-width:0.26" />
                <path
                   id="path7395"
                   d="m 374.6598,533.88918 c -1.7,0.15 -2.8,1.1 -3.7,2.5 l -14,21 c -0.89,1.4 1.3,2.9 3,3 l 68,4.8 c 1.7,0.12 2.5,-1.4 3,-3 l 9.7,-32 c 0.49,-1.6 -1.4,-3.2 -3,-3 z m 1.4,0.64 60,-5.8 c 1.6,-0.15 3.4,1.4 2.9,2.9 l -9.7,31 c -0.49,1.5 -1.3,3 -2.9,2.9 l -65,-4.8 c -1.6,-0.12 -4,-1.2 -3.2,-2.5 l 13,-21 c 0.87,-1.3 2.4,-2.1 4,-2.2 z"
                   style="fill:#1a1a1a;stroke-width:0.26" />
              </g>
              <g
                 id="g1537"
                 transform="matrix(0.83432929,0,0,0.83432929,480.54261,84.70925)">
                <path
                   id="rect14299-5"
                   d="m 442.1498,503.88918 c -0.1,-0.004 -0.21,-0.001 -0.31,0.008 l -63,5.8 c -1.7,0.15 -2.8,1.1 -3.7,2.5 l -14,21 c -0.89,1.4 1.3,2.9 3,3 l 68,4.8 c 1.7,0.12 2.5,-1.4 3,-3 l 9.7,-32 c 0.46,-1.5 -1.1,-3 -2.7,-3 z"
                   style="opacity:0.6;fill:#666666;stroke-width:0.26" />
                <path
                   id="path7065"
                   d="m 440.7598,500.88918 c -0.1,-0.004 -0.21,-7.9e-4 -0.31,0.009 l -63,5.8 c -1.7,0.15 -2.8,1.1 -3.7,2.5 l -14,21 c -0.89,1.4 1.3,2.9 3,3 l 68,4.8 c 1.7,0.12 2.5,-1.4 3,-3 l 9.7,-32 c 0.46,-1.5 -1.1,-3 -2.7,-3 z"
                   style="fill:#f9f9f9;stroke-width:0.26" />
                <path
                   id="path7067"
                   d="m 377.6598,506.88918 c -1.7,0.15 -2.8,1.1 -3.7,2.5 l -14,21 c -0.89,1.4 1.3,2.9 3,3 l 68,4.8 c 1.7,0.12 2.5,-1.4 3,-3 l 9.7,-32 c 0.49,-1.6 -1.4,-3.2 -3,-3 z m 1.4,0.64 60,-5.8 c 1.6,-0.15 3.4,1.4 2.9,2.9 l -9.7,31 c -0.49,1.5 -1.3,3 -2.9,2.9 l -65,-4.8 c -1.6,-0.12 -4,-1.2 -3.2,-2.5 l 13,-21 c 0.87,-1.3 2.4,-2.1 4,-2.2 z"
                   style="fill:#1a1a1a;stroke-width:0.26" />
              </g>
              <g
                 id="g1542"
                 transform="matrix(0.83432929,0,0,0.83432929,480.54261,84.70925)">
                <path
                   id="rect13896-2"
                   d="m 421.6598,481.88918 c -0.1,5.3e-4 -0.21,0.008 -0.31,0.023 l -40,5.8 c -1.7,0.24 -3.3,0.58 -4.3,1.9 l -13,17 c -1,1.3 1.4,2.8 3,3 l 20,2.2 c 6,0.73 12,1.4 17,1.9 l 7.3,0.79 c 1.7,0.18 2.4,-1.4 3,-3 l 9.7,-27 c 0.54,-1.5 -1.1,-3 -2.7,-3 z"
                   style="opacity:0.6;fill:#666666;stroke-width:0.26" />
                <path
                   id="path6265"
                   d="m 420.6598,478.83074 c -0.1,5.3e-4 -0.21,0.008 -0.31,0.023 l -40,5.8 c -1.7,0.24 -3.3,0.58 -4.3,1.9 l -13,17 c -1,1.3 1.4,2.8 3,3 l 44,4.8 c 1.7,0.18 2.4,-1.4 3,-3 l 9.7,-27 c 0.54,-1.5 -1.1,-3 -2.7,-3 z m 1.3,3.5 c 0.076,-0.006 0.12,0.026 0.12,0.1 l -0.24,-0.07 c 0.046,-0.016 0.087,-0.028 0.12,-0.03 z"
                   style="fill:#f9f9f9;stroke-width:0.26" />
                <path
                   id="path6267"
                   d="m 380.6598,484.88918 c -1.7,0.24 -3.3,0.58 -4.3,1.9 l -13,17 c -1,1.3 1.4,2.8 3,3 l 44,4.8 c 1.7,0.18 2.4,-1.4 3,-3 l 9.7,-27 c 0.57,-1.6 -1.4,-3.3 -3,-3 z m 1.2,0.67 37,-5.8 c 1.6,-0.24 2.9,1.3 2.9,2.9 l -9.7,26 c -0.56,1.5 -1.3,3 -2.9,2.9 l -42,-4.8 c -1.6,-0.18 -3.4,-1.1 -2.4,-2.3 l 13,-16 c 0.96,-1.3 2.6,-1.9 4.2,-2.1 z"
                   style="fill:#1a1a1a;stroke-width:0.26" />
              </g>
            </g>
            <g
               id="svg-roboq-obj-dummytext">
              <g
                 aria-label="xxxxxxx"
                 id="text28756-3-3"
                 style="font-size:10px;line-height:1.25">
                <path
                   d="m 796.90735,560.43958 -1.97754,2.66113 2.08008,2.80762 h -1.05957 l -1.5918,-2.14844 -1.5918,2.14844 h -1.05957 l 2.12403,-2.86133 -1.94336,-2.60742 h 1.05957 l 1.45019,1.94824 1.4502,-1.94824 z"
                   id="path32786" />
                <path
                   d="m 802.82532,560.43958 -1.97754,2.66113 2.08008,2.80762 h -1.05957 l -1.5918,-2.14844 -1.5918,2.14844 h -1.05957 l 2.12403,-2.86133 -1.94336,-2.60742 h 1.05957 l 1.45019,1.94824 1.4502,-1.94824 z"
                   id="path32788" />
                <path
                   d="m 808.74329,560.43958 -1.97754,2.66113 2.08008,2.80762 h -1.05958 l -1.59179,-2.14844 -1.5918,2.14844 h -1.05957 l 2.12402,-2.86133 -1.94336,-2.60742 h 1.05958 l 1.45019,1.94824 1.4502,-1.94824 z"
                   id="path32790" />
                <path
                   d="m 814.66125,560.43958 -1.97753,2.66113 2.08007,2.80762 h -1.05957 l -1.59179,-2.14844 -1.5918,2.14844 h -1.05957 l 2.12402,-2.86133 -1.94336,-2.60742 h 1.05957 l 1.4502,1.94824 1.45019,-1.94824 z"
                   id="path32792" />
                <path
                   d="m 820.57922,560.43958 -1.97754,2.66113 2.08008,2.80762 h -1.05957 l -1.59179,-2.14844 -1.5918,2.14844 h -1.05957 l 2.12402,-2.86133 -1.94336,-2.60742 h 1.05957 l 1.4502,1.94824 1.45019,-1.94824 z"
                   id="path32794" />
                <path
                   d="m 826.49719,560.43958 -1.97754,2.66113 2.08008,2.80762 h -1.05957 l -1.5918,-2.14844 -1.59179,2.14844 H 821.297 l 2.12402,-2.86133 -1.94336,-2.60742 h 1.05957 l 1.4502,1.94824 1.45019,-1.94824 z"
                   id="path32796" />
                <path
                   d="m 832.41516,560.43958 -1.97754,2.66113 2.08008,2.80762 h -1.05957 l -1.5918,-2.14844 -1.59179,2.14844 h -1.05957 l 2.12402,-2.86133 -1.94336,-2.60742 h 1.05957 l 1.4502,1.94824 1.45019,-1.94824 z"
                   id="path32798" />
              </g>
              <g
                 aria-label="xxxxxxx"
                 id="text28756-3-7"
                 style="font-size:10px;line-height:1.25">
                <path
                   d="m 798.47522,538.35382 -1.97754,2.66113 2.08008,2.80762 h -1.05957 l -1.5918,-2.14844 -1.5918,2.14844 h -1.05957 l 2.12403,-2.86133 -1.94336,-2.60742 h 1.05957 l 1.45019,1.94824 1.4502,-1.94824 z"
                   id="path32753" />
                <path
                   d="m 804.39319,538.35382 -1.97754,2.66113 2.08008,2.80762 h -1.05957 l -1.5918,-2.14844 -1.5918,2.14844 h -1.05957 l 2.12403,-2.86133 -1.94336,-2.60742 h 1.05957 l 1.45019,1.94824 1.4502,-1.94824 z"
                   id="path32755" />
                <path
                   d="m 810.31116,538.35382 -1.97754,2.66113 2.08008,2.80762 h -1.05957 l -1.5918,-2.14844 -1.5918,2.14844 h -1.05957 l 2.12403,-2.86133 -1.94336,-2.60742 h 1.05957 l 1.45019,1.94824 1.4502,-1.94824 z"
                   id="path32757" />
                <path
                   d="m 816.22913,538.35382 -1.97754,2.66113 2.08008,2.80762 h -1.05958 l -1.59179,-2.14844 -1.5918,2.14844 h -1.05957 l 2.12402,-2.86133 -1.94336,-2.60742 h 1.05958 l 1.45019,1.94824 1.4502,-1.94824 z"
                   id="path32759" />
                <path
                   d="m 822.14709,538.35382 -1.97753,2.66113 2.08007,2.80762 h -1.05957 l -1.59179,-2.14844 -1.5918,2.14844 h -1.05957 l 2.12402,-2.86133 -1.94336,-2.60742 h 1.05957 l 1.4502,1.94824 1.45019,-1.94824 z"
                   id="path32761" />
                <path
                   d="m 828.06506,538.35382 -1.97754,2.66113 2.08008,2.80762 h -1.05957 l -1.59179,-2.14844 -1.5918,2.14844 h -1.05957 l 2.12402,-2.86133 -1.94336,-2.60742 h 1.05957 l 1.4502,1.94824 1.45019,-1.94824 z"
                   id="path32763" />
                <path
                   d="m 833.98303,538.35382 -1.97754,2.66113 2.08008,2.80762 H 833.026 l -1.5918,-2.14844 -1.59179,2.14844 h -1.05957 l 2.12402,-2.86133 -1.94336,-2.60742 h 1.05957 l 1.4502,1.94824 1.45019,-1.94824 z"
                   id="path32765" />
              </g>
              <g
                 aria-label="xxxxxxx"
                 id="text28756-3"
                 style="font-size:10px;line-height:1.25">
                <path
                   d="m 800.93231,516.24414 -1.97754,2.66113 2.08008,2.80762 h -1.05957 l -1.5918,-2.14844 -1.59179,2.14844 h -1.05957 l 2.12402,-2.86133 -1.94336,-2.60742 h 1.05957 l 1.4502,1.94824 1.45019,-1.94824 z"
                   id="path32720" />
                <path
                   d="m 806.85028,516.24414 -1.97754,2.66113 2.08008,2.80762 h -1.05957 l -1.5918,-2.14844 -1.59179,2.14844 h -1.05957 l 2.12402,-2.86133 -1.94336,-2.60742 h 1.05957 l 1.4502,1.94824 1.45019,-1.94824 z"
                   id="path32722" />
                <path
                   d="m 812.76825,516.24414 -1.97754,2.66113 2.08008,2.80762 h -1.05957 l -1.5918,-2.14844 -1.5918,2.14844 h -1.05957 l 2.12403,-2.86133 -1.94336,-2.60742 h 1.05957 l 1.45019,1.94824 1.4502,-1.94824 z"
                   id="path32724" />
                <path
                   d="m 818.68622,516.24414 -1.97754,2.66113 2.08008,2.80762 h -1.05957 l -1.5918,-2.14844 -1.5918,2.14844 h -1.05957 l 2.12403,-2.86133 -1.94336,-2.60742 h 1.05957 l 1.45019,1.94824 1.4502,-1.94824 z"
                   id="path32726" />
                <path
                   d="m 824.60419,516.24414 -1.97754,2.66113 2.08008,2.80762 h -1.05957 l -1.5918,-2.14844 -1.5918,2.14844 h -1.05957 l 2.12403,-2.86133 -1.94336,-2.60742 h 1.05957 l 1.45019,1.94824 1.4502,-1.94824 z"
                   id="path32728" />
                <path
                   d="m 830.52216,516.24414 -1.97754,2.66113 2.08007,2.80762 h -1.05957 l -1.59179,-2.14844 -1.5918,2.14844 h -1.05957 l 2.12402,-2.86133 -1.94336,-2.60742 h 1.05957 l 1.4502,1.94824 1.4502,-1.94824 z"
                   id="path32730" />
                <path
                   d="m 836.44012,516.24414 -1.97753,2.66113 2.08007,2.80762 h -1.05957 l -1.59179,-2.14844 -1.5918,2.14844 h -1.05957 l 2.12402,-2.86133 -1.94336,-2.60742 h 1.05957 l 1.4502,1.94824 1.45019,-1.94824 z"
                   id="path32732" />
              </g>
              <g
                 aria-label="xxx"
                 id="text28756"
                 style="font-size:10px;line-height:1.25">
                <path
                   d="m 805.46887,495.31107 -1.97754,2.66113 2.08008,2.80762 h -1.05957 l -1.5918,-2.14844 -1.59179,2.14844 h -1.05957 l 2.12402,-2.86133 -1.94336,-2.60742 h 1.05957 l 1.4502,1.94824 1.45019,-1.94824 z"
                   id="path32695" />
                <path
                   d="m 811.38684,495.31107 -1.97754,2.66113 2.08008,2.80762 h -1.05957 l -1.5918,-2.14844 -1.59179,2.14844 h -1.05957 l 2.12402,-2.86133 -1.94336,-2.60742 h 1.05957 l 1.4502,1.94824 1.45019,-1.94824 z"
                   id="path32697" />
                <path
                   d="m 817.30481,495.31107 -1.97754,2.66113 2.08008,2.80762 h -1.05957 l -1.5918,-2.14844 -1.5918,2.14844 h -1.05957 l 2.12403,-2.86133 -1.94336,-2.60742 h 1.05957 l 1.45019,1.94824 1.4502,-1.94824 z"
                   id="path32699" />
              </g>
            </g>
          </g>
          <text
             id="svg-roboq-intro-obj-ready-text"
             x="1090.0654"
             y="546.84778"
             style="font-size:31.7045px;line-height:1.25;font-family:sans-serif;stroke-width:0.216926"
             xml:space="preserve"><tspan
               id="tspan93555"
               x="1090.0654"
               y="546.84778"
               style="font-size:31.7045px;stroke-width:0.216926">READY</tspan></text>
          <path
             id="path2150-7-5-3"
             d="m 1034.2534,516.79936 v 10.84628 h -19.1896 c -0.4088,0 -0.7425,0.33373 -0.7425,0.74256 v 14.18359 c 0,0.40882 0.3337,0.74256 0.7425,0.74256 h 19.1896 v 10.84628 l 22.5269,-18.35525 z"
             style="fill:#1a1a1a;stroke-width:0.183552" />
          <text
             id="text94247"
             x="1061.7203"
             y="620.4126"
             style="font-size:17.5209px;line-height:1.25;font-family:sans-serif;stroke-width:0.216926"
             xml:space="preserve"><tspan
               id="tspan171830"
               x="1061.7203"
               y="620.4126"
               style="font-size:17.5209px;text-align:center;text-anchor:middle;stroke-width:0.216926">Import the XML &amp;</tspan><tspan
               id="tspan176328"
               x="1061.7203"
               y="642.48761"
               style="font-size:17.5209px;text-align:center;text-anchor:middle;stroke-width:0.216926">final check</tspan></text>
          <text
             xml:space="preserve"
             style="font-size:12px;line-height:1.85;font-family:sans-serif"
             x="769.99139"
             y="501.13782"
             id="text5291"><tspan
               sodipodi:role="line"
               id="tspan5289"
               x="769.99139"
               y="501.13782"
               style="font-size:12px;text-align:end;text-anchor:end">App. info</tspan><tspan
               sodipodi:role="line"
               x="769.99139"
               y="523.33783"
               id="tspan10465"
               style="font-size:12px;text-align:end;text-anchor:end">US patent. info</tspan><tspan
               sodipodi:role="line"
               x="769.99139"
               y="545.53784"
               id="tspan10467"
               style="font-size:12px;text-align:end;text-anchor:end">Foreign patent. info</tspan><tspan
               sodipodi:role="line"
               x="769.99139"
               y="567.73779"
               id="tspan10469"
               style="font-size:12px;text-align:end;text-anchor:end">non-patent. info</tspan></text>
        </g>
      </g>
    </g>
  </g>
  <text
     xml:space="preserve"
     style="font-size:36.9762px;line-height:0;font-family:sans-serif;stroke-width:0.660289"
     x="15.067039"
     y="310.75705"
     id="svg-roboq-obj-catchphrase"><tspan
       sodipodi:role="line"
       id="tspan56885"
       x="15.067039"
       y="310.75705"
       style="font-size:36.9762px;line-height:1.55;fill:#1a1a1a;stroke-width:0.660289">Filling IDS-form is tedious</tspan><tspan
       sodipodi:role="line"
       x="15.067039"
       y="368.07016"
       id="tspan59751"
       style="font-size:36.9762px;line-height:1.55;fill:#1a1a1a;stroke-width:0.660289">Time consuming</tspan><tspan
       sodipodi:role="line"
       x="15.067039"
       y="425.38327"
       style="font-size:36.9762px;line-height:1.55;fill:#1a1a1a;stroke-width:0.660289"
       id="tspan4986">Your time, your cost</tspan><tspan
       style="font-size:26.4115px;line-height:1.54;fill:#1a1a1a;stroke-width:0.660289"
       sodipodi:role="line"
       id="tspan56446"
       x="15.067039"
       y="471.63232">We offer cheap yet effective way to</tspan><tspan
       style="font-size:26.4115px;line-height:1.14;fill:#1a1a1a;stroke-width:0.660289"
       sodipodi:role="line"
       id="tspan58040"
       x="15.067039"
       y="507.02374">save your time</tspan><tspan
       style="font-size:26.4115px;line-height:1.14;fill:#1a1a1a;stroke-width:0.660289"
       sodipodi:role="line"
       x="15.067039"
       y="537.13287"
       id="tspan62140" /><tspan
       style="font-size:31.6938px;line-height:1.92;fill:#1a1a1a;stroke-width:0.660289"
       sodipodi:role="line"
       id="tspan40716"
       x="15.067039"
       y="583.9856">SAFE | QUICK | EFFECTIVE</tspan></text>
  <g
     id="svg-roboq-grp-authbutton">
    <g
       id="g1052"
       transform="matrix(0.64837838,0,0,0.64837838,249.65141,9.664576)">
      <rect
         style="fill:#afdde9;stroke-width:0.944364"
         id="svg-roboq-obj-signinbutton"
         width="148.79964"
         height="50.479626"
         x="546.41266"
         y="95.932732"
         ry="17.091911" />
      <g
         aria-label="Sign In"
         id="text2576"
         style="font-size:32px;line-height:1.25;-inkscape-font-specification:sans-serif;fill:#1a1a1a">
        <path
           d="m 583.39844,107.43817 v 3.07813 q -1.79688,-0.85938 -3.39063,-1.28125 -1.59375,-0.42188 -3.07812,-0.42188 -2.57813,0 -3.98438,1 -1.39062,1 -1.39062,2.84375 0,1.54688 0.92187,2.34375 0.9375,0.78125 3.53125,1.26563 l 1.90625,0.39062 q 3.53125,0.67188 5.20313,2.375 1.6875,1.6875 1.6875,4.53125 0,3.39063 -2.28125,5.14063 -2.26563,1.75 -6.65625,1.75 -1.65625,0 -3.53125,-0.375 -1.85938,-0.375 -3.85938,-1.10938 v -3.25 q 1.92188,1.07813 3.76563,1.625 1.84375,0.54688 3.625,0.54688 2.70312,0 4.17187,-1.0625 1.46875,-1.0625 1.46875,-3.03125 0,-1.71875 -1.0625,-2.6875 -1.04687,-0.96875 -3.45312,-1.45313 l -1.92188,-0.375 q -3.53125,-0.70312 -5.10937,-2.20312 -1.57813,-1.5 -1.57813,-4.17188 0,-3.09375 2.17188,-4.875 2.1875,-1.78125 6.01562,-1.78125 1.64063,0 3.34375,0.29688 1.70313,0.29687 3.48438,0.89062 z"
           id="path1001" />
        <path
           d="m 589.60156,112.50067 h 2.875 v 17.5 h -2.875 z m 0,-6.8125 h 2.875 v 3.64063 h -2.875 z"
           id="path1003" />
        <path
           d="m 610.00781,121.04755 q 0,-3.125 -1.29687,-4.84375 -1.28125,-1.71875 -3.60938,-1.71875 -2.3125,0 -3.60937,1.71875 -1.28125,1.71875 -1.28125,4.84375 0,3.10937 1.28125,4.82812 1.29687,1.71875 3.60937,1.71875 2.32813,0 3.60938,-1.71875 1.29687,-1.71875 1.29687,-4.82812 z m 2.875,6.78125 q 0,4.46875 -1.98437,6.64062 -1.98438,2.1875 -6.07813,2.1875 -1.51562,0 -2.85937,-0.23437 -1.34375,-0.21875 -2.60938,-0.6875 v -2.79688 q 1.26563,0.6875 2.5,1.01563 1.23438,0.32812 2.51563,0.32812 2.82812,0 4.23437,-1.48437 1.40625,-1.46875 1.40625,-4.45313 v -1.42187 q -0.89062,1.54687 -2.28125,2.3125 -1.39062,0.76562 -3.32812,0.76562 -3.21875,0 -5.1875,-2.45312 -1.96875,-2.45313 -1.96875,-6.5 0,-4.0625 1.96875,-6.51563 1.96875,-2.45312 5.1875,-2.45312 1.9375,0 3.32812,0.76562 1.39063,0.76563 2.28125,2.3125 v -2.65625 h 2.875 z"
           id="path1005" />
        <path
           d="m 633.35156,119.43817 v 10.5625 h -2.875 v -10.46875 q 0,-2.48437 -0.96875,-3.71875 -0.96875,-1.23437 -2.90625,-1.23437 -2.32812,0 -3.67187,1.48437 -1.34375,1.48438 -1.34375,4.04688 v 9.89062 h -2.89063 v -17.5 h 2.89063 v 2.71875 q 1.03125,-1.57812 2.42187,-2.35937 1.40625,-0.78125 3.23438,-0.78125 3.01562,0 4.5625,1.875 1.54687,1.85937 1.54687,5.48437 z"
           id="path1007" />
        <path
           d="m 649.38281,106.67255 h 3.15625 v 23.32812 h -3.15625 z"
           id="path1009" />
        <path
           d="m 673.24219,119.43817 v 10.5625 h -2.875 v -10.46875 q 0,-2.48437 -0.96875,-3.71875 -0.96875,-1.23437 -2.90625,-1.23437 -2.32813,0 -3.67188,1.48437 -1.34375,1.48438 -1.34375,4.04688 v 9.89062 h -2.89062 v -17.5 h 2.89062 v 2.71875 q 1.03125,-1.57812 2.42188,-2.35937 1.40625,-0.78125 3.23437,-0.78125 3.01563,0 4.5625,1.875 1.54688,1.85937 1.54688,5.48437 z"
           id="path1011" />
      </g>
    </g>
    <g
       aria-label="   /   "
       id="text33777"
       style="font-size:32px;line-height:1.25;fill:#1a1a1a"
       transform="matrix(0.64837838,0,0,0.64837838,249.65141,9.664576)">
      <path
         d="m 711.88281,108.02411 h 2.65625 l -8.125,26.29687 h -2.65625 z"
         id="path1100"
         style="fill:#1a1a1a" />
    </g>
    <g
       id="g1042"
       transform="matrix(0.64837838,0,0,0.64837838,249.65141,9.664576)">
      <rect
         style="opacity:0.965652;fill:#aade87;stroke-width:0.944364"
         id="svg-roboq-obj-regbutton"
         width="148.79964"
         height="50.479626"
         x="724.78766"
         y="95.932732"
         ry="17.091911" />
      <g
         aria-label="Register"
         id="text36079"
         style="font-size:32px;line-height:1.25">
        <path
           d="m 745.94531,119.06317 q 1.01563,0.34375 1.96875,1.46875 0.96875,1.125 1.9375,3.09375 l 3.20313,6.375 h -3.39063 l -2.98437,-5.98437 q -1.15625,-2.34375 -2.25,-3.10938 -1.07813,-0.76562 -2.95313,-0.76562 h -3.4375 v 9.85937 h -3.15625 v -23.32812 h 7.125 q 4,0 5.96875,1.67187 1.96875,1.67188 1.96875,5.04688 0,2.20312 -1.03125,3.65625 -1.01562,1.45312 -2.96875,2.01562 z m -7.90625,-9.79687 v 8.28125 h 3.96875 q 2.28125,0 3.4375,-1.04688 1.17188,-1.0625 1.17188,-3.10937 0,-2.04688 -1.17188,-3.07813 -1.15625,-1.04687 -3.4375,-1.04687 z"
           id="path963" />
        <path
           d="m 770.52344,120.53192 v 1.40625 h -13.21875 q 0.1875,2.96875 1.78125,4.53125 1.60937,1.54688 4.46875,1.54688 1.65625,0 3.20312,-0.40625 1.5625,-0.40625 3.09375,-1.21875 v 2.71875 q -1.54687,0.65625 -3.17187,1 -1.625,0.34375 -3.29688,0.34375 -4.1875,0 -6.64062,-2.4375 -2.4375,-2.4375 -2.4375,-6.59375 0,-4.29688 2.3125,-6.8125 2.32812,-2.53125 6.26562,-2.53125 3.53125,0 5.57813,2.28125 2.0625,2.26562 2.0625,6.17187 z m -2.875,-0.84375 q -0.0312,-2.35937 -1.32813,-3.76562 -1.28125,-1.40625 -3.40625,-1.40625 -2.40625,0 -3.85937,1.35937 -1.4375,1.35938 -1.65625,3.82813 z"
           id="path965" />
        <path
           d="m 786.75781,121.04755 q 0,-3.125 -1.29687,-4.84375 -1.28125,-1.71875 -3.60938,-1.71875 -2.3125,0 -3.60937,1.71875 -1.28125,1.71875 -1.28125,4.84375 0,3.10937 1.28125,4.82812 1.29687,1.71875 3.60937,1.71875 2.32813,0 3.60938,-1.71875 1.29687,-1.71875 1.29687,-4.82812 z m 2.875,6.78125 q 0,4.46875 -1.98437,6.64062 -1.98438,2.1875 -6.07813,2.1875 -1.51562,0 -2.85937,-0.23437 -1.34375,-0.21875 -2.60938,-0.6875 v -2.79688 q 1.26563,0.6875 2.5,1.01563 1.23438,0.32812 2.51563,0.32812 2.82812,0 4.23437,-1.48437 1.40625,-1.46875 1.40625,-4.45313 v -1.42187 q -0.89062,1.54687 -2.28125,2.3125 -1.39062,0.76562 -3.32812,0.76562 -3.21875,0 -5.1875,-2.45312 -1.96875,-2.45313 -1.96875,-6.5 0,-4.0625 1.96875,-6.51563 1.96875,-2.45312 5.1875,-2.45312 1.9375,0 3.32812,0.76562 1.39063,0.76563 2.28125,2.3125 v -2.65625 h 2.875 z"
           id="path967" />
        <path
           d="m 795.55469,112.50067 h 2.875 v 17.5 h -2.875 z m 0,-6.8125 h 2.875 v 3.64063 h -2.875 z"
           id="path969" />
        <path
           d="m 815.60156,113.0163 v 2.71875 q -1.21875,-0.625 -2.53125,-0.9375 -1.3125,-0.3125 -2.71875,-0.3125 -2.14062,0 -3.21875,0.65625 -1.0625,0.65625 -1.0625,1.96875 0,1 0.76563,1.57812 0.76562,0.5625 3.07812,1.07813 l 0.98438,0.21875 q 3.0625,0.65625 4.34375,1.85937 1.29687,1.1875 1.29687,3.32813 0,2.4375 -1.9375,3.85937 -1.92187,1.42188 -5.29687,1.42188 -1.40625,0 -2.9375,-0.28125 -1.51563,-0.26563 -3.20313,-0.8125 v -2.96875 q 1.59375,0.82812 3.14063,1.25 1.54687,0.40625 3.0625,0.40625 2.03125,0 3.125,-0.6875 1.09375,-0.70313 1.09375,-1.96875 0,-1.17188 -0.79688,-1.79688 -0.78125,-0.625 -3.45312,-1.20312 l -1,-0.23438 q -2.67188,-0.5625 -3.85938,-1.71875 -1.1875,-1.17187 -1.1875,-3.20312 0,-2.46875 1.75,-3.8125 1.75,-1.34375 4.96875,-1.34375 1.59375,0 3,0.23437 1.40625,0.23438 2.59375,0.70313 z"
           id="path971" />
        <path
           d="m 823.96094,107.53192 v 4.96875 h 5.92187 v 2.23438 h -5.92187 v 9.5 q 0,2.14062 0.57812,2.75 0.59375,0.60937 2.39063,0.60937 h 2.95312 v 2.40625 h -2.95312 q -3.32813,0 -4.59375,-1.23437 -1.26563,-1.25 -1.26563,-4.53125 v -9.5 h -2.10937 v -2.23438 h 2.10937 v -4.96875 z"
           id="path973" />
        <path
           d="m 848.63281,120.53192 v 1.40625 h -13.21875 q 0.1875,2.96875 1.78125,4.53125 1.60938,1.54688 4.46875,1.54688 1.65625,0 3.20313,-0.40625 1.5625,-0.40625 3.09375,-1.21875 v 2.71875 q -1.54688,0.65625 -3.17188,1 -1.625,0.34375 -3.29687,0.34375 -4.1875,0 -6.64063,-2.4375 -2.4375,-2.4375 -2.4375,-6.59375 0,-4.29688 2.3125,-6.8125 2.32813,-2.53125 6.26563,-2.53125 3.53125,0 5.57812,2.28125 2.0625,2.26562 2.0625,6.17187 z m -2.875,-0.84375 q -0.0312,-2.35937 -1.32812,-3.76562 -1.28125,-1.40625 -3.40625,-1.40625 -2.40625,0 -3.85938,1.35937 -1.4375,1.35938 -1.65625,3.82813 z"
           id="path975" />
        <path
           d="m 863.49219,115.18817 q -0.48438,-0.28125 -1.0625,-0.40625 -0.5625,-0.14062 -1.25,-0.14062 -2.4375,0 -3.75,1.59375 -1.29688,1.57812 -1.29688,4.54687 v 9.21875 h -2.89062 v -17.5 h 2.89062 v 2.71875 q 0.90625,-1.59375 2.35938,-2.35937 1.45312,-0.78125 3.53125,-0.78125 0.29687,0 0.65625,0.0469 0.35937,0.0312 0.79687,0.10938 z"
           id="path977" />
      </g>
    </g>
    <rect
       style="fill:#1a1a1a;stroke-width:0.263155"
       id="rect5307"
       width="230.42204"
       height="0.76549321"
       x="594.789"
       y="113.99374"
       ry="0.3087219" />
  </g>
  <g
     id="svg-roboq-grp-doclink"
     transform="matrix(0.89535823,0,0,0.89535823,74.295652,83.850227)">
    <g
       aria-label="1 Download template"
       id="svg-roboq-obj-downloadtemplate"
       style="font-size:25.5938px;line-height:1.25;stroke-width:0.799805">
      <path
         d="m 269.85892,793.4468 h 4.124 v -14.23405 l -4.48641,0.89978 v -2.29944 l 4.46142,-0.89978 h 2.52439 v 16.53349 h 4.124 v 2.12449 h -10.7474 z"
         style="fill:#447821"
         id="path153978" />
      <path
         d="m 296.14006,778.98781 v 14.50898 h 3.04926 q 3.86156,0 5.64863,-1.74957 1.79957,-1.74958 1.79957,-5.52367 0,-3.74909 -1.79957,-5.48617 -1.78707,-1.74957 -5.64863,-1.74957 z m -2.52439,-2.0745 h 5.18624 q 5.42369,0 7.96058,2.26195 2.53688,2.24946 2.53688,7.04829 0,4.82384 -2.54938,7.08579 -2.54938,2.26195 -7.94808,2.26195 h -5.18624 z"
         style="fill:#447821"
         id="path153980" />
      <path
         d="m 318.64711,783.18679 q -1.84956,0 -2.9243,1.44965 -1.07474,1.43715 -1.07474,3.94904 0,2.51189 1.06225,3.96154 1.07474,1.43715 2.93679,1.43715 1.83705,0 2.91179,-1.44965 1.07474,-1.44964 1.07474,-3.94904 0,-2.4869 -1.07474,-3.93654 -1.07474,-1.46215 -2.91179,-1.46215 z m 0,-1.94953 q 2.99927,0 4.71135,1.94953 1.71209,1.94953 1.71209,5.39869 0,3.43667 -1.71209,5.39869 -1.71208,1.94953 -4.71135,1.94953 -3.01177,0 -4.72386,-1.94953 -1.69959,-1.96202 -1.69959,-5.39869 0,-3.44916 1.69959,-5.39869 1.71209,-1.94953 4.72386,-1.94953 z"
         style="fill:#447821"
         id="path153982" />
      <path
         d="m 327.54495,781.57468 h 2.29944 l 2.87431,10.92235 2.8618,-10.92235 h 2.71185 l 2.8743,10.92235 2.86181,-10.92235 h 2.29944 l -3.66161,13.99661 h -2.71185 l -3.01177,-11.47222 -3.02426,11.47222 h -2.71185 z"
         style="fill:#447821"
         id="path153984" />
      <path
         d="m 361.44924,787.12334 v 8.44795 h -2.29944 v -8.37297 q 0,-1.98702 -0.77482,-2.97428 -0.77481,-0.98726 -2.32443,-0.98726 -1.86205,0 -2.93679,1.18721 -1.07474,1.18721 -1.07474,3.23672 v 7.91058 h -2.31194 v -13.99661 h 2.31194 v 2.17447 q 0.8248,-1.26219 1.93703,-1.88704 1.12473,-0.62485 2.58687,-0.62485 2.41192,0 3.64912,1.49964 1.2372,1.48714 1.2372,4.38644 z"
         style="fill:#447821"
         id="path153986" />
      <path
         d="m 366.03563,776.126 h 2.29944 v 19.44529 h -2.29944 z"
         style="fill:#447821"
         id="path153988" />
      <path
         d="m 378.57008,783.18679 q -1.84955,0 -2.92429,1.44965 -1.07474,1.43715 -1.07474,3.94904 0,2.51189 1.06225,3.96154 1.07473,1.43715 2.93678,1.43715 1.83706,0 2.9118,-1.44965 1.07474,-1.44964 1.07474,-3.94904 0,-2.4869 -1.07474,-3.93654 -1.07474,-1.46215 -2.9118,-1.46215 z m 0,-1.94953 q 2.99928,0 4.71136,1.94953 1.71209,1.94953 1.71209,5.39869 0,3.43667 -1.71209,5.39869 -1.71208,1.94953 -4.71136,1.94953 -3.01177,0 -4.72385,-1.94953 -1.69959,-1.96202 -1.69959,-5.39869 0,-3.44916 1.69959,-5.39869 1.71208,-1.94953 4.72385,-1.94953 z"
         style="fill:#447821"
         id="path153990" />
      <path
         d="m 395.16606,788.53549 q -2.78682,0 -3.86156,0.63735 -1.07474,0.63734 -1.07474,2.17447 0,1.22471 0.79981,1.94953 0.8123,0.71233 2.19946,0.71233 1.91204,0 3.06176,-1.34968 1.16222,-1.36217 1.16222,-3.61162 v -0.51238 z m 4.58639,-0.94977 v 7.98557 h -2.29944 v -2.12449 q -0.78731,1.27469 -1.96203,1.88705 -1.17471,0.59985 -2.8743,0.59985 -2.14948,0 -3.42417,-1.19971 -1.26219,-1.2122 -1.26219,-3.23671 0,-2.36193 1.57461,-3.56164 1.58712,-1.19971 4.72386,-1.19971 h 3.22422 v -0.22495 q 0,-1.58711 -1.04975,-2.4494 -1.03725,-0.87479 -2.92429,-0.87479 -1.19971,0 -2.33693,0.28743 -1.13723,0.28743 -2.18697,0.86229 v -2.12448 q 1.26219,-0.48739 2.4494,-0.72483 1.18722,-0.24994 2.31194,-0.24994 3.03677,0 4.53641,1.57462 1.49963,1.57462 1.49963,4.77384 z"
         style="fill:#447821"
         id="path153992" />
      <path
         d="M 413.69907,783.69917 V 776.126 h 2.29945 v 19.44529 h -2.29945 v -2.09949 q -0.72482,1.24969 -1.83705,1.86205 -1.09974,0.59985 -2.64936,0.59985 -2.53689,0 -4.1365,-2.02451 -1.58711,-2.02451 -1.58711,-5.32371 0,-3.2992 1.58711,-5.32371 1.59961,-2.02451 4.1365,-2.02451 1.54962,0 2.64936,0.61235 1.11223,0.59986 1.83705,1.84956 z m -7.8356,4.88631 q 0,2.53689 1.03725,3.98654 1.04975,1.43715 2.8743,1.43715 1.82456,0 2.87431,-1.43715 1.04974,-1.44965 1.04974,-3.98654 0,-2.53688 -1.04974,-3.97404 -1.04975,-1.44964 -2.87431,-1.44964 -1.82455,0 -2.8743,1.44964 -1.03725,1.43716 -1.03725,3.97404 z"
         style="fill:#447821"
         id="path153994" />
      <path
         d="m 431.14485,777.60064 v 3.97404 h 4.73635 v 1.78707 h -4.73635 v 7.59816 q 0,1.71208 0.46238,2.19946 0.47489,0.48739 1.91204,0.48739 h 2.36193 v 1.92453 h -2.36193 q -2.66185,0 -3.67411,-0.98726 -1.01225,-0.99976 -1.01225,-3.62412 v -7.59816 h -1.6871 v -1.78707 h 1.6871 v -3.97404 z"
         style="fill:#447821"
         id="path153996" />
      <path
         d="m 450.87758,787.99812 v 1.12473 h -10.57244 q 0.14996,2.37443 1.42465,3.62412 1.28719,1.2372 3.57414,1.2372 1.32468,0 2.56188,-0.32492 1.24969,-0.32492 2.4744,-0.97476 v 2.17447 q -1.2372,0.52487 -2.53689,0.79981 -1.29968,0.27493 -2.63686,0.27493 -3.34919,0 -5.31121,-1.94953 -1.94953,-1.94952 -1.94953,-5.27372 0,-3.43667 1.84955,-5.44868 1.86205,-2.02451 5.01129,-2.02451 2.82431,0 4.46142,1.82456 1.6496,1.81206 1.6496,4.9363 z m -2.29945,-0.67483 q -0.025,-1.88705 -1.06224,-3.01177 -1.02475,-1.12473 -2.72434,-1.12473 -1.92453,0 -3.08675,1.08724 -1.14972,1.08723 -1.32468,3.06175 z"
         style="fill:#447821"
         id="path153998" />
      <path
         d="m 465.54902,784.26153 q 0.86229,-1.54963 2.062,-2.28695 1.19971,-0.73732 2.82432,-0.73732 2.18697,0 3.37418,1.53713 1.18721,1.52463 1.18721,4.34895 v 8.44795 h -2.31194 v -8.37297 q 0,-2.01202 -0.71232,-2.98678 -0.71233,-0.97476 -2.17448,-0.97476 -1.78706,0 -2.82431,1.18721 -1.03725,1.18721 -1.03725,3.23672 v 7.91058 h -2.31194 v -8.37297 q 0,-2.02451 -0.71233,-2.98678 -0.71233,-0.97476 -2.19947,-0.97476 -1.76207,0 -2.79932,1.19971 -1.03725,1.18721 -1.03725,3.22422 v 7.91058 h -2.31194 v -13.99661 h 2.31194 v 2.17447 q 0.78731,-1.28719 1.88705,-1.89954 1.09973,-0.61235 2.61186,-0.61235 1.52463,0 2.58688,0.77481 1.07474,0.77482 1.58711,2.24946 z"
         style="fill:#447821"
         id="path154000" />
      <path
         d="m 481.80758,793.4718 v 7.4232 h -2.31194 v -19.32032 h 2.31194 v 2.12449 q 0.72482,-1.2497 1.82456,-1.84956 1.11223,-0.61235 2.64936,-0.61235 2.54938,0 4.13649,2.02451 1.59962,2.02451 1.59962,5.32371 0,3.2992 -1.59962,5.32371 -1.58711,2.02451 -4.13649,2.02451 -1.53713,0 -2.64936,-0.59985 -1.09974,-0.61236 -1.82456,-1.86205 z m 7.82311,-4.88632 q 0,-2.53688 -1.04975,-3.97404 -1.03725,-1.44964 -2.86181,-1.44964 -1.82456,0 -2.8743,1.44964 -1.03725,1.43716 -1.03725,3.97404 0,2.53689 1.03725,3.98654 1.04974,1.43715 2.8743,1.43715 1.82456,0 2.86181,-1.43715 1.04975,-1.44965 1.04975,-3.98654 z"
         style="fill:#447821"
         id="path154002" />
      <path
         d="m 495.82918,776.126 h 2.29945 v 19.44529 h -2.29945 z"
         style="fill:#447821"
         id="path154004" />
      <path
         d="m 509.30092,788.53549 q -2.78682,0 -3.86156,0.63735 -1.07474,0.63734 -1.07474,2.17447 0,1.22471 0.7998,1.94953 0.81231,0.71233 2.19947,0.71233 1.91204,0 3.06176,-1.34968 1.16222,-1.36217 1.16222,-3.61162 v -0.51238 z m 4.58639,-0.94977 v 7.98557 h -2.29944 v -2.12449 q -0.78731,1.27469 -1.96203,1.88705 -1.17471,0.59985 -2.8743,0.59985 -2.14948,0 -3.42417,-1.19971 -1.2622,-1.2122 -1.2622,-3.23671 0,-2.36193 1.57462,-3.56164 1.58712,-1.19971 4.72386,-1.19971 h 3.22422 v -0.22495 q 0,-1.58711 -1.04975,-2.4494 -1.03725,-0.87479 -2.92429,-0.87479 -1.19971,0 -2.33693,0.28743 -1.13723,0.28743 -2.18697,0.86229 v -2.12448 q 1.26219,-0.48739 2.4494,-0.72483 1.18721,-0.24994 2.31194,-0.24994 3.03677,0 4.5364,1.57462 1.49964,1.57462 1.49964,4.77384 z"
         style="fill:#447821"
         id="path154006" />
      <path
         d="m 520.89811,777.60064 v 3.97404 h 4.73635 v 1.78707 h -4.73635 v 7.59816 q 0,1.71208 0.46239,2.19946 0.47488,0.48739 1.91204,0.48739 h 2.36192 v 1.92453 h -2.36192 q -2.66186,0 -3.67411,-0.98726 -1.01226,-0.99976 -1.01226,-3.62412 v -7.59816 h -1.68709 v -1.78707 h 1.68709 v -3.97404 z"
         style="fill:#447821"
         id="path154008" />
      <path
         d="m 540.63084,787.99812 v 1.12473 H 530.0584 q 0.14997,2.37443 1.42466,3.62412 1.28719,1.2372 3.57413,1.2372 1.32468,0 2.56188,-0.32492 1.2497,-0.32492 2.4744,-0.97476 v 2.17447 q -1.2372,0.52487 -2.53688,0.79981 -1.29969,0.27493 -2.63686,0.27493 -3.34919,0 -5.31122,-1.94953 -1.94953,-1.94952 -1.94953,-5.27372 0,-3.43667 1.84956,-5.44868 1.86204,-2.02451 5.01128,-2.02451 2.82432,0 4.46142,1.82456 1.6496,1.81206 1.6496,4.9363 z m -2.29944,-0.67483 q -0.025,-1.88705 -1.06224,-3.01177 -1.02476,-1.12473 -2.72434,-1.12473 -1.92454,0 -3.08676,1.08724 -1.14972,1.08723 -1.32468,3.06175 z"
         style="fill:#447821"
         id="path154010" />
    </g>
    <g
       aria-label="|"
       id="text76055"
       style="font-size:25.5938px;line-height:1.25">
      <path
         d="m 567.03892,775.7136 v 25.5938 h -2.12448 v -25.5938 z"
         id="path154013" />
    </g>
    <g
       aria-label="| "
       id="text76055-3"
       style="font-size:25.5938px;line-height:1.25">
      <path
         d="m 861.27159,775.7136 v 25.5938 h -2.12449 v -25.5938 z"
         id="path154016" />
    </g>
    <g
       aria-label="2 Upload your form"
       id="svg-roboq-obj-uploadform"
       style="font-size:25.5938px;line-height:1.25;fill:#1a1a1a">
      <path
         d="m 594.35925,793.4468 h 8.81036 v 2.12449 h -11.84713 v -2.12449 q 1.43715,-1.48714 3.91156,-3.98653 2.48689,-2.51189 3.12424,-3.23672 1.2122,-1.36217 1.68709,-2.29944 0.48738,-0.94977 0.48738,-1.86205 0,-1.48714 -1.04974,-2.42441 -1.03725,-0.93727 -2.71185,-0.93727 -1.18721,0 -2.51189,0.4124 -1.31218,0.4124 -2.81182,1.24969 v -2.54938 q 1.52463,-0.61235 2.84931,-0.92477 1.32468,-0.31243 2.42441,-0.31243 2.8993,0 4.62388,1.44965 1.72459,1.44965 1.72459,3.87406 0,1.14972 -0.4374,2.18697 -0.42489,1.02475 -1.56212,2.42441 -0.31242,0.36242 -1.98702,2.0995 -1.67459,1.72458 -4.72385,4.83632 z"
         id="path154019" />
      <path
         d="m 616.09148,776.91331 h 2.53689 v 11.33475 q 0,2.99928 1.08724,4.32396 1.08723,1.31218 3.52414,1.31218 2.42442,0 3.51165,-1.31218 1.08724,-1.32468 1.08724,-4.32396 v -11.33475 h 2.53688 v 11.64718 q 0,3.64911 -1.81206,5.51116 -1.79956,1.86205 -5.32371,1.86205 -3.53664,0 -5.3487,-1.86205 -1.79957,-1.86205 -1.79957,-5.51116 z"
         id="path154021" />
      <path
         d="m 637.23636,793.4718 v 7.4232 h -2.31194 v -19.32032 h 2.31194 v 2.12449 q 0.72482,-1.2497 1.82456,-1.84956 1.11223,-0.61235 2.64936,-0.61235 2.54938,0 4.13649,2.02451 1.59962,2.02451 1.59962,5.32371 0,3.2992 -1.59962,5.32371 -1.58711,2.02451 -4.13649,2.02451 -1.53713,0 -2.64936,-0.59985 -1.09974,-0.61236 -1.82456,-1.86205 z m 7.8231,-4.88632 q 0,-2.53688 -1.04974,-3.97404 -1.03725,-1.44964 -2.86181,-1.44964 -1.82456,0 -2.8743,1.44964 -1.03725,1.43716 -1.03725,3.97404 0,2.53689 1.03725,3.98654 1.04974,1.43715 2.8743,1.43715 1.82456,0 2.86181,-1.43715 1.04974,-1.44965 1.04974,-3.98654 z"
         id="path154023" />
      <path
         d="m 651.25797,776.126 h 2.29944 v 19.44529 h -2.29944 z"
         id="path154025" />
      <path
         d="m 663.79243,783.18679 q -1.84955,0 -2.92429,1.44965 -1.07474,1.43715 -1.07474,3.94904 0,2.51189 1.06224,3.96154 1.07474,1.43715 2.93679,1.43715 1.83705,0 2.91179,-1.44965 1.07474,-1.44964 1.07474,-3.94904 0,-2.4869 -1.07474,-3.93654 -1.07474,-1.46215 -2.91179,-1.46215 z m 0,-1.94953 q 2.99927,0 4.71136,1.94953 1.71208,1.94953 1.71208,5.39869 0,3.43667 -1.71208,5.39869 -1.71209,1.94953 -4.71136,1.94953 -3.01177,0 -4.72386,-1.94953 -1.69959,-1.96202 -1.69959,-5.39869 0,-3.44916 1.69959,-5.39869 1.71209,-1.94953 4.72386,-1.94953 z"
         id="path154027" />
      <path
         d="m 680.38841,788.53549 q -2.78683,0 -3.86157,0.63735 -1.07474,0.63734 -1.07474,2.17447 0,1.22471 0.79981,1.94953 0.8123,0.71233 2.19947,0.71233 1.91203,0 3.06175,-1.34968 1.16222,-1.36217 1.16222,-3.61162 v -0.51238 z m 4.58639,-0.94977 v 7.98557 h -2.29945 v -2.12449 q -0.78731,1.27469 -1.96202,1.88705 -1.17472,0.59985 -2.87431,0.59985 -2.14948,0 -3.42417,-1.19971 -1.26219,-1.2122 -1.26219,-3.23671 0,-2.36193 1.57462,-3.56164 1.58711,-1.19971 4.72385,-1.19971 h 3.22422 v -0.22495 q 0,-1.58711 -1.04974,-2.4494 -1.03725,-0.87479 -2.92429,-0.87479 -1.19971,0 -2.33694,0.28743 -1.13722,0.28743 -2.18697,0.86229 v -2.12448 q 1.2622,-0.48739 2.44941,-0.72483 1.18721,-0.24994 2.31194,-0.24994 3.03676,0 4.5364,1.57462 1.49964,1.57462 1.49964,4.77384 z"
         id="path154029" />
      <path
         d="M 698.92142,783.69917 V 776.126 h 2.29944 v 19.44529 h -2.29944 v -2.09949 q -0.72483,1.24969 -1.83706,1.86205 -1.09973,0.59985 -2.64936,0.59985 -2.53688,0 -4.13649,-2.02451 -1.58712,-2.02451 -1.58712,-5.32371 0,-3.2992 1.58712,-5.32371 1.59961,-2.02451 4.13649,-2.02451 1.54963,0 2.64936,0.61235 1.11223,0.59986 1.83706,1.84956 z m -7.8356,4.88631 q 0,2.53689 1.03724,3.98654 1.04975,1.43715 2.87431,1.43715 1.82456,0 2.8743,-1.43715 1.04975,-1.44965 1.04975,-3.98654 0,-2.53688 -1.04975,-3.97404 -1.04974,-1.44964 -2.8743,-1.44964 -1.82456,0 -2.87431,1.44964 -1.03724,1.43716 -1.03724,3.97404 z"
         id="path154031" />
      <path
         d="m 719.91634,796.87097 q -0.97477,2.4994 -1.89954,3.26171 -0.92478,0.76232 -2.4744,0.76232 h -1.83706 v -1.92453 h 1.34967 q 0.94977,0 1.47465,-0.4499 0.52487,-0.44989 1.16222,-2.12448 l 0.4124,-1.04975 -5.66113,-13.77166 h 2.43691 l 4.37394,10.94735 4.37394,-10.94735 h 2.43691 z"
         id="path154033" />
      <path
         d="m 734.66277,783.18679 q -1.84956,0 -2.9243,1.44965 -1.07474,1.43715 -1.07474,3.94904 0,2.51189 1.06225,3.96154 1.07474,1.43715 2.93679,1.43715 1.83705,0 2.91179,-1.44965 1.07474,-1.44964 1.07474,-3.94904 0,-2.4869 -1.07474,-3.93654 -1.07474,-1.46215 -2.91179,-1.46215 z m 0,-1.94953 q 2.99927,0 4.71135,1.94953 1.71209,1.94953 1.71209,5.39869 0,3.43667 -1.71209,5.39869 -1.71208,1.94953 -4.71135,1.94953 -3.01177,0 -4.72386,-1.94953 -1.69959,-1.96202 -1.69959,-5.39869 0,-3.44916 1.69959,-5.39869 1.71209,-1.94953 4.72386,-1.94953 z"
         id="path154035" />
      <path
         d="m 744.66034,790.04763 v -8.47295 h 2.29945 v 8.38547 q 0,1.98702 0.77481,2.98677 0.77481,0.98727 2.32444,0.98727 1.86204,0 2.93678,-1.18722 1.08724,-1.18721 1.08724,-3.23671 v -7.93558 h 2.29944 v 13.99661 h -2.29944 v -2.14948 q -0.8373,1.27469 -1.94953,1.89954 -1.09973,0.61235 -2.56188,0.61235 -2.41191,0 -3.66161,-1.49964 -1.2497,-1.49963 -1.2497,-4.38643 z m 5.7861,-8.81037 z"
         id="path154037" />
      <path
         d="m 769.22939,783.72416 q -0.38741,-0.22495 -0.84979,-0.32492 -0.44989,-0.11247 -0.99976,-0.11247 -1.94953,0 -2.99927,1.27469 -1.03725,1.26219 -1.03725,3.63662 v 7.37321 h -2.31194 v -13.99661 h 2.31194 v 2.17447 q 0.72482,-1.27469 1.88704,-1.88704 1.16222,-0.62485 2.82432,-0.62485 0.23744,0 0.52487,0.0375 0.28743,0.025 0.63734,0.0875 z"
         id="path154039" />
      <path
         d="m 786.86261,776.126 v 1.91204 h -2.19946 q -1.2372,0 -1.72459,0.49988 -0.47488,0.49987 -0.47488,1.79956 v 1.2372 h 3.78658 v 1.78707 h -3.78658 v 12.20954 h -2.31194 v -12.20954 h -2.19947 v -1.78707 h 2.19947 v -0.97476 q 0,-2.33694 1.08724,-3.39918 1.08723,-1.07474 3.44916,-1.07474 z"
         id="path154041" />
      <path
         d="m 794.21083,783.18679 q -1.84955,0 -2.92429,1.44965 -1.07474,1.43715 -1.07474,3.94904 0,2.51189 1.06224,3.96154 1.07474,1.43715 2.93679,1.43715 1.83706,0 2.9118,-1.44965 1.07473,-1.44964 1.07473,-3.94904 0,-2.4869 -1.07473,-3.93654 -1.07474,-1.46215 -2.9118,-1.46215 z m 0,-1.94953 q 2.99927,0 4.71136,1.94953 1.71208,1.94953 1.71208,5.39869 0,3.43667 -1.71208,5.39869 -1.71209,1.94953 -4.71136,1.94953 -3.01177,0 -4.72385,-1.94953 -1.69959,-1.96202 -1.69959,-5.39869 0,-3.44916 1.69959,-5.39869 1.71208,-1.94953 4.72385,-1.94953 z"
         id="path154043" />
      <path
         d="m 812.55639,783.72416 q -0.38741,-0.22495 -0.8498,-0.32492 -0.44989,-0.11247 -0.99976,-0.11247 -1.94952,0 -2.99927,1.27469 -1.03725,1.26219 -1.03725,3.63662 v 7.37321 h -2.31194 v -13.99661 h 2.31194 v 2.17447 q 0.72483,-1.27469 1.88705,-1.88704 1.16221,-0.62485 2.82431,-0.62485 0.23744,0 0.52487,0.0375 0.28743,0.025 0.63735,0.0875 z"
         id="path154045" />
      <path
         d="m 825.41577,784.26153 q 0.86229,-1.54963 2.062,-2.28695 1.19971,-0.73732 2.82431,-0.73732 2.18697,0 3.37419,1.53713 1.18721,1.52463 1.18721,4.34895 v 8.44795 h -2.31194 v -8.37297 q 0,-2.01202 -0.71233,-2.98678 -0.71233,-0.97476 -2.17447,-0.97476 -1.78707,0 -2.82432,1.18721 -1.03725,1.18721 -1.03725,3.23672 v 7.91058 h -2.31194 v -8.37297 q 0,-2.02451 -0.71232,-2.98678 -0.71233,-0.97476 -2.19947,-0.97476 -1.76207,0 -2.79932,1.19971 -1.03725,1.18721 -1.03725,3.22422 v 7.91058 h -2.31194 v -13.99661 h 2.31194 v 2.17447 q 0.78731,-1.28719 1.88704,-1.89954 1.09973,-0.61235 2.61187,-0.61235 1.52463,0 2.58687,0.77481 1.07474,0.77482 1.58712,2.24946 z"
         id="path154047" />
    </g>
    <g
       aria-label="3 Download the XML"
       id="svg-roboq-obj-downloadxml"
       style="font-size:25.5938px;line-height:1.25;fill:#216778">
      <path
         d="m 897.23984,787.99188 q 1.81206,0.3874 2.82432,1.61211 1.02475,1.2247 1.02475,3.02426 0,2.76184 -1.89954,4.27397 -1.89954,1.51213 -5.39869,1.51213 -1.17472,0 -2.42441,-0.23744 -1.2372,-0.22494 -2.56188,-0.68733 v -2.43691 q 1.04974,0.61235 2.29944,0.92477 1.2497,0.31243 2.61187,0.31243 2.37442,0 3.61162,-0.93728 1.2497,-0.93727 1.2497,-2.72434 0,-1.6496 -1.16222,-2.57437 -1.14972,-0.93727 -3.21172,-0.93727 h -2.17448 v -2.0745 h 2.27445 q 1.86205,0 2.84931,-0.73732 0.98726,-0.74982 0.98726,-2.14948 0,-1.43715 -1.02475,-2.19947 -1.01225,-0.77481 -2.91179,-0.77481 -1.03725,0 -2.22446,0.22494 -1.18722,0.22495 -2.61187,0.69983 v -2.24945 q 1.43715,-0.3999 2.68685,-0.59986 1.26219,-0.19995 2.37442,-0.19995 2.87431,0 4.5489,1.31218 1.6746,1.29969 1.6746,3.52415 0,1.54963 -0.88729,2.62437 -0.88728,1.06224 -2.52439,1.47464 z"
         id="path154050" />
      <path
         d="m 916.31022,781.46846 v 14.50898 h 3.04927 q 3.86156,0 5.64863,-1.74957 1.79956,-1.74958 1.79956,-5.52366 0,-3.7491 -1.79956,-5.48618 -1.78707,-1.74957 -5.64863,-1.74957 z m -2.52438,-2.0745 h 5.18624 q 5.42369,0 7.96057,2.26195 2.53689,2.24946 2.53689,7.0483 0,4.82383 -2.54939,7.08578 -2.54938,2.26195 -7.94807,2.26195 h -5.18624 z"
         id="path154052" />
      <path
         d="m 938.81727,785.66744 q -1.84955,0 -2.92429,1.44965 -1.07474,1.43715 -1.07474,3.94904 0,2.51189 1.06224,3.96154 1.07474,1.43716 2.93679,1.43716 1.83706,0 2.9118,-1.44965 1.07474,-1.44965 1.07474,-3.94905 0,-2.48689 -1.07474,-3.93654 -1.07474,-1.46215 -2.9118,-1.46215 z m 0,-1.94953 q 2.99928,0 4.71136,1.94953 1.71209,1.94953 1.71209,5.39869 0,3.43667 -1.71209,5.3987 -1.71208,1.94952 -4.71136,1.94952 -3.01177,0 -4.72385,-1.94952 -1.69959,-1.96203 -1.69959,-5.3987 0,-3.44916 1.69959,-5.39869 1.71208,-1.94953 4.72385,-1.94953 z"
         id="path154054" />
      <path
         d="m 947.71512,784.05533 h 2.29944 l 2.8743,10.92236 2.86181,-10.92236 h 2.71184 l 2.87431,10.92236 2.8618,-10.92236 h 2.29945 l -3.66162,13.99661 h -2.71184 l -3.01177,-11.47222 -3.02427,11.47222 h -2.71184 z"
         id="path154056" />
      <path
         d="m 981.6194,789.60399 v 8.44795 h -2.29944 v -8.37297 q 0,-1.98702 -0.77481,-2.97428 -0.77481,-0.98726 -2.32444,-0.98726 -1.86205,0 -2.93679,1.18721 -1.07474,1.18721 -1.07474,3.23672 v 7.91058 h -2.31194 v -13.99661 h 2.31194 v 2.17447 q 0.8248,-1.26219 1.93703,-1.88704 1.12473,-0.62485 2.58688,-0.62485 2.41191,0 3.64911,1.49964 1.2372,1.48714 1.2372,4.38644 z"
         id="path154058" />
      <path
         d="m 986.20579,778.60665 h 2.29945 v 19.44529 h -2.29945 z"
         id="path154060" />
      <path
         d="m 998.74025,785.66744 q -1.84955,0 -2.92429,1.44965 -1.07474,1.43715 -1.07474,3.94904 0,2.51189 1.06224,3.96154 1.07474,1.43716 2.93679,1.43716 1.83705,0 2.91175,-1.44965 1.0748,-1.44965 1.0748,-3.94905 0,-2.48689 -1.0748,-3.93654 -1.0747,-1.46215 -2.91175,-1.46215 z m 0,-1.94953 q 2.99925,0 4.71135,1.94953 1.7121,1.94953 1.7121,5.39869 0,3.43667 -1.7121,5.3987 -1.7121,1.94952 -4.71135,1.94952 -3.01177,0 -4.72386,-1.94952 -1.69958,-1.96203 -1.69958,-5.3987 0,-3.44916 1.69958,-5.39869 1.71209,-1.94953 4.72386,-1.94953 z"
         id="path154062" />
      <path
         d="m 1015.3362,791.01615 q -2.7868,0 -3.8615,0.63734 -1.0748,0.63735 -1.0748,2.17447 0,1.22471 0.7998,1.94953 0.8123,0.71233 2.1995,0.71233 1.912,0 3.0618,-1.34967 1.1622,-1.36217 1.1622,-3.61163 v -0.51237 z m 4.5864,-0.94977 v 7.98556 h -2.2994 v -2.12448 q -0.7873,1.27469 -1.962,1.88704 -1.1748,0.59985 -2.8744,0.59985 -2.1494,0 -3.4241,-1.19971 -1.2622,-1.2122 -1.2622,-3.23671 0,-2.36193 1.5746,-3.56164 1.5871,-1.19971 4.7239,-1.19971 h 3.2242 v -0.22494 q 0,-1.58712 -1.0498,-2.44941 -1.0372,-0.87479 -2.9243,-0.87479 -1.1997,0 -2.3369,0.28743 -1.1372,0.28743 -2.187,0.86229 v -2.12448 q 1.2622,-0.48738 2.4494,-0.72483 1.1873,-0.24994 2.312,-0.24994 3.0367,0 4.5364,1.57462 1.4996,1.57462 1.4996,4.77385 z"
         id="path154064" />
      <path
         d="m 1033.8692,786.17982 v -7.57317 h 2.2995 v 19.44529 h -2.2995 v -2.09949 q -0.7248,1.2497 -1.837,1.86205 -1.0997,0.59985 -2.6494,0.59985 -2.5369,0 -4.1365,-2.02451 -1.5871,-2.02451 -1.5871,-5.32371 0,-3.2992 1.5871,-5.32371 1.5996,-2.02451 4.1365,-2.02451 1.5497,0 2.6494,0.61236 1.1122,0.59985 1.837,1.84955 z m -7.8356,4.88631 q 0,2.53689 1.0373,3.98654 1.0497,1.43715 2.8743,1.43715 1.8245,0 2.8743,-1.43715 1.0497,-1.44965 1.0497,-3.98654 0,-2.53688 -1.0497,-3.97403 -1.0498,-1.44965 -2.8743,-1.44965 -1.8246,0 -2.8743,1.44965 -1.0373,1.43715 -1.0373,3.97403 z"
         id="path154066" />
      <path
         d="m 1051.315,780.08129 v 3.97404 h 4.7364 v 1.78707 h -4.7364 v 7.59816 q 0,1.71208 0.4624,2.19947 0.4749,0.48738 1.912,0.48738 h 2.362 v 1.92453 h -2.362 q -2.6618,0 -3.6741,-0.98726 -1.0122,-0.99976 -1.0122,-3.62412 v -7.59816 h -1.6871 v -1.78707 h 1.6871 v -3.97404 z"
         id="path154068" />
      <path
         d="m 1070.7103,789.60399 v 8.44795 h -2.2994 v -8.37297 q 0,-1.98702 -0.7748,-2.97428 -0.7748,-0.98726 -2.3245,-0.98726 -1.862,0 -2.9368,1.18721 -1.0747,1.18721 -1.0747,3.23672 v 7.91058 h -2.3119 v -19.44529 h 2.3119 v 7.62315 q 0.8248,-1.26219 1.937,-1.88704 1.1248,-0.62485 2.5869,-0.62485 2.4119,0 3.6491,1.49964 1.2372,1.48714 1.2372,4.38644 z"
         id="path154070" />
      <path
         d="m 1087.2688,790.47878 v 1.12472 h -10.5724 q 0.1499,2.37443 1.4246,3.62413 1.2872,1.2372 3.5742,1.2372 1.3246,0 2.5618,-0.32493 1.2497,-0.32492 2.4744,-0.97476 v 2.17447 q -1.2372,0.52488 -2.5368,0.79981 -1.2997,0.27493 -2.6369,0.27493 -3.3492,0 -5.3112,-1.94952 -1.9495,-1.94953 -1.9495,-5.27373 0,-3.43666 1.8495,-5.44868 1.8621,-2.02451 5.0113,-2.02451 2.8243,0 4.4614,1.82456 1.6496,1.81206 1.6496,4.93631 z m -2.2994,-0.67484 q -0.025,-1.88704 -1.0623,-3.01177 -1.0247,-1.12473 -2.7243,-1.12473 -1.9245,0 -3.0868,1.08724 -1.1497,1.08723 -1.3246,3.06176 z"
         id="path154072" />
      <path
         d="m 1098.3786,779.39396 h 2.7119 l 4.6363,6.93582 4.6614,-6.93582 h 2.7119 l -5.9986,8.96033 6.3985,9.69765 h -2.7119 l -5.2487,-7.93558 -5.2862,7.93558 h -2.7244 l 6.6609,-9.96009 z"
         id="path154074" />
      <path
         d="m 1116.8117,779.39396 h 3.7615 l 4.7614,12.69693 4.7863,-12.69693 h 3.7616 v 18.65798 h -2.4619 v -16.38353 l -4.8113,12.7969 h -2.5369 l -4.8113,-12.7969 v 16.38353 h -2.4494 z"
         id="path154076" />
      <path
         d="m 1138.8938,779.39396 h 2.5244 v 16.5335 h 9.0853 v 2.12448 h -11.6097 z"
         id="path154078" />
    </g>
  </g>
  <path
     id="svg-roboq-obj-uploadformindicator"
     style="fill:#87cdde;stroke-width:0.73649"
     inkscape:transform-center-x="0.88413778"
     inkscape:transform-center-y="0.65078407"
     d="m 716.00939,738.7198 a 18.032078,10.761108 0 0 0 -18.03195,10.76143 18.032078,10.761108 0 0 0 5.74997,7.85379 l 6.08078,7.27489 -0.44253,-5.13479 a 18.032078,10.761108 0 0 0 6.64373,0.76609 18.032078,10.761108 0 0 0 18.03197,-10.75998 18.032078,10.761108 0 0 0 -18.03197,-10.76143 z m 0,1.52346 a 15.478583,9.2372443 0 0 1 15.47836,9.23797 15.478583,9.2372443 0 0 1 -15.47836,9.23652 15.478583,9.2372443 0 0 1 -7.84219,-1.27826 l 0.29019,3.35451 -4.84461,-5.79495 a 15.478583,9.2372443 0 0 1 -3.08173,-5.51782 15.478583,9.2372443 0 0 1 15.47834,-9.23797 z" />
  <text
     xml:space="preserve"
     style="font-size:24px;line-height:1.25;font-family:sans-serif;stroke-width:1"
     x="427.89627"
     y="755.88947"
     id="svg-roboq-obj-downloadtemplateindicator"><tspan
       sodipodi:role="line"
       id="tspan2328"
       style="font-style:normal;font-variant:normal;font-weight:normal;font-stretch:normal;font-size:24px;font-family:'Ubuntu Mono';-inkscape-font-specification:'Ubuntu Mono';stroke-width:1"
       x="427.89627"
       y="755.88947"></tspan></text>
  <text
     xml:space="preserve"
     style="font-size:24px;line-height:1.25;font-family:sans-serif;stroke-width:1"
     x="972.70258"
     y="755.88947"
     id="svg-roboq-obj-downloadxmlindicator"><tspan
       sodipodi:role="line"
       id="tspan2328-5"
       style="font-style:normal;font-variant:normal;font-weight:normal;font-stretch:normal;font-size:24px;font-family:'Ubuntu Mono';-inkscape-font-specification:'Ubuntu Mono';stroke-width:1"
       x="972.70258"
       y="755.88947"></tspan></text>
  <text
     xml:space="preserve"
     style="font-size:24px;line-height:1.25;font-family:sans-serif"
     x="622.37891"
     y="142.3797"
     id="text2863"><tspan
       sodipodi:role="line"
       id="tspan2861"
       x="622.37891"
       y="142.3797"
       style="font-size:24px">Welcome back </tspan></text>
</svg>
